<?xml version="1.0" encoding="UTF-8"?>
<svg xmlns="http://www.w3.org/2000/svg" width="91" height="166" viewBox="0 0 91 166" fill="none">
  
  <g transform="translate(6.03 -34.07)">
    <g transform="rotate(-6 39 117.6)">
    <path d="M 42.02 34.52 L 12.62 34.52 L 12.62 191.32 L 42.02 191.32 L 42.02 139.77 C 75.54 139.18 86.71 128.21 86.71 97.04 L 86.71 77.25 C 86.71 45.69 75.54 34.52 42.02 34.52 Z M 42.02 110.37 L 42.02 63.92 C 53.39 63.92 57.31 65.88 57.31 77.25 L 57.31 97.04 C 57.31 108.41 53.39 110.37 42.02 110.37 Z" fill="#ffffff" stroke="#1e1e1e" stroke-width="1.0" />
    <polygon points="42.02,34.52 12.62,34.52 1.96,39.2 31.36,39.2" fill="#78b3d6" stroke="#1e1e1e" stroke-width="0.95" stroke-linejoin="round" stroke-linecap="round" />
<polygon points="12.62,34.52 12.62,191.32 1.96,196 1.96,39.2" fill="#d86969" stroke="#1e1e1e" stroke-width="0.95" stroke-linejoin="round" stroke-linecap="round" />
<polygon points="12.62,191.32 42.02,191.32 31.36,196 1.96,196" fill="#4f7969" stroke="#1e1e1e" stroke-width="0.95" stroke-linejoin="round" stroke-linecap="round" />
<polygon points="42.02,191.32 42.02,139.77 31.36,144.45 31.36,196" fill="#fccbcb" stroke="#1e1e1e" stroke-width="0.95" stroke-linejoin="round" stroke-linecap="round" />
<polygon points="42.02,139.77 49.94,139.4 39.28,144.08 31.36,144.45" fill="#78b3d6" stroke="#1e1e1e" stroke-width="0.95" stroke-linejoin="round" stroke-linecap="round" />
<polygon points="49.94,139.4 56.97,138.57 46.31,143.25 39.28,144.08" fill="#d86969" stroke="#1e1e1e" stroke-width="0.95" stroke-linejoin="round" stroke-linecap="round" />
<polygon points="56.97,138.57 63.14,137.23 52.48,141.91 46.31,143.25" fill="#4f7969" stroke="#1e1e1e" stroke-width="0.95" stroke-linejoin="round" stroke-linecap="round" />
<polygon points="63.14,137.23 68.5,135.36 57.84,140.04 52.48,141.91" fill="#fccbcb" stroke="#1e1e1e" stroke-width="0.95" stroke-linejoin="round" stroke-linecap="round" />
<polygon points="68.5,135.36 73.09,132.92 62.43,137.6 57.84,140.04" fill="#78b3d6" stroke="#1e1e1e" stroke-width="0.95" stroke-linejoin="round" stroke-linecap="round" />
<polygon points="73.09,132.92 76.93,129.87 66.27,134.55 62.43,137.6" fill="#d86969" stroke="#1e1e1e" stroke-width="0.95" stroke-linejoin="round" stroke-linecap="round" />
<polygon points="76.93,129.87 80.08,126.19 69.42,130.87 66.27,134.55" fill="#4f7969" stroke="#1e1e1e" stroke-width="0.95" stroke-linejoin="round" stroke-linecap="round" />
<polygon points="80.08,126.19 82.57,121.84 71.91,126.52 69.42,130.87" fill="#fccbcb" stroke="#1e1e1e" stroke-width="0.95" stroke-linejoin="round" stroke-linecap="round" />
<polygon points="82.57,121.84 84.44,116.78 73.78,121.46 71.91,126.52" fill="#78b3d6" stroke="#1e1e1e" stroke-width="0.95" stroke-linejoin="round" stroke-linecap="round" />
<polygon points="84.44,116.78 85.73,110.99 75.07,115.67 73.78,121.46" fill="#d86969" stroke="#1e1e1e" stroke-width="0.95" stroke-linejoin="round" stroke-linecap="round" />
<polygon points="85.73,110.99 86.47,104.42 75.81,109.1 75.07,115.67" fill="#4f7969" stroke="#1e1e1e" stroke-width="0.95" stroke-linejoin="round" stroke-linecap="round" />
<polygon points="86.47,104.42 86.71,97.04 76.05,101.72 75.81,109.1" fill="#fccbcb" stroke="#1e1e1e" stroke-width="0.95" stroke-linejoin="round" stroke-linecap="round" />
<polygon points="86.71,97.04 86.71,77.25 76.05,81.93 76.05,101.72" fill="#78b3d6" stroke="#1e1e1e" stroke-width="0.95" stroke-linejoin="round" stroke-linecap="round" />
<polygon points="86.71,77.25 86.47,69.78 75.81,74.46 76.05,81.93" fill="#d86969" stroke="#1e1e1e" stroke-width="0.95" stroke-linejoin="round" stroke-linecap="round" />
<polygon points="86.47,69.78 85.73,63.13 75.07,67.81 75.81,74.46" fill="#4f7969" stroke="#1e1e1e" stroke-width="0.95" stroke-linejoin="round" stroke-linecap="round" />
<polygon points="85.73,63.13 84.44,57.26 73.78,61.94 75.07,67.81" fill="#fccbcb" stroke="#1e1e1e" stroke-width="0.95" stroke-linejoin="round" stroke-linecap="round" />
<polygon points="84.44,57.26 82.57,52.15 71.91,56.83 73.78,61.94" fill="#78b3d6" stroke="#1e1e1e" stroke-width="0.95" stroke-linejoin="round" stroke-linecap="round" />
<polygon points="82.57,52.15 80.08,47.75 69.42,52.43 71.91,56.83" fill="#d86969" stroke="#1e1e1e" stroke-width="0.95" stroke-linejoin="round" stroke-linecap="round" />
<polygon points="80.08,47.75 76.93,44.05 66.27,48.73 69.42,52.43" fill="#4f7969" stroke="#1e1e1e" stroke-width="0.95" stroke-linejoin="round" stroke-linecap="round" />
<polygon points="76.93,44.05 73.09,41.01 62.43,45.69 66.27,48.73" fill="#fccbcb" stroke="#1e1e1e" stroke-width="0.95" stroke-linejoin="round" stroke-linecap="round" />
<polygon points="73.09,41.01 68.5,38.59 57.84,43.27 62.43,45.69" fill="#78b3d6" stroke="#1e1e1e" stroke-width="0.95" stroke-linejoin="round" stroke-linecap="round" />
<polygon points="68.5,38.59 63.14,36.76 52.48,41.44 57.84,43.27" fill="#d86969" stroke="#1e1e1e" stroke-width="0.95" stroke-linejoin="round" stroke-linecap="round" />
<polygon points="63.14,36.76 56.97,35.49 46.31,40.17 52.48,41.44" fill="#4f7969" stroke="#1e1e1e" stroke-width="0.95" stroke-linejoin="round" stroke-linecap="round" />
<polygon points="56.97,35.49 49.94,34.76 39.28,39.44 46.31,40.17" fill="#fccbcb" stroke="#1e1e1e" stroke-width="0.95" stroke-linejoin="round" stroke-linecap="round" />
<polygon points="49.94,34.76 42.02,34.52 31.36,39.2 39.28,39.44" fill="#78b3d6" stroke="#1e1e1e" stroke-width="0.95" stroke-linejoin="round" stroke-linecap="round" />
<polygon points="42.02,110.37 42.02,63.92 31.36,68.6 31.36,115.05" fill="#d86969" stroke="#1e1e1e" stroke-width="0.95" stroke-linejoin="round" stroke-linecap="round" />
<polygon points="42.02,63.92 44.71,63.97 34.05,68.65 31.36,68.6" fill="#4f7969" stroke="#1e1e1e" stroke-width="0.95" stroke-linejoin="round" stroke-linecap="round" />
<polygon points="44.71,63.97 47.1,64.12 36.44,68.8 34.05,68.65" fill="#fccbcb" stroke="#1e1e1e" stroke-width="0.95" stroke-linejoin="round" stroke-linecap="round" />
<polygon points="47.1,64.12 49.2,64.4 38.54,69.08 36.44,68.8" fill="#78b3d6" stroke="#1e1e1e" stroke-width="0.95" stroke-linejoin="round" stroke-linecap="round" />
<polygon points="49.2,64.4 51.04,64.85 40.38,69.53 38.54,69.08" fill="#d86969" stroke="#1e1e1e" stroke-width="0.95" stroke-linejoin="round" stroke-linecap="round" />
<polygon points="51.04,64.85 52.61,65.48 41.95,70.16 40.38,69.53" fill="#4f7969" stroke="#1e1e1e" stroke-width="0.95" stroke-linejoin="round" stroke-linecap="round" />
<polygon points="52.61,65.48 53.93,66.32 43.27,71 41.95,70.16" fill="#fccbcb" stroke="#1e1e1e" stroke-width="0.95" stroke-linejoin="round" stroke-linecap="round" />
<polygon points="53.93,66.32 55.01,67.4 44.35,72.08 43.27,71" fill="#78b3d6" stroke="#1e1e1e" stroke-width="0.95" stroke-linejoin="round" stroke-linecap="round" />
<polygon points="55.01,67.4 55.87,68.74 45.21,73.42 44.35,72.08" fill="#d86969" stroke="#1e1e1e" stroke-width="0.95" stroke-linejoin="round" stroke-linecap="round" />
<polygon points="55.87,68.74 56.52,70.37 45.86,75.05 45.21,73.42" fill="#4f7969" stroke="#1e1e1e" stroke-width="0.95" stroke-linejoin="round" stroke-linecap="round" />
<polygon points="56.52,70.37 56.97,72.31 46.31,76.99 45.86,75.05" fill="#fccbcb" stroke="#1e1e1e" stroke-width="0.95" stroke-linejoin="round" stroke-linecap="round" />
<polygon points="56.97,72.31 57.22,74.6 46.56,79.28 46.31,76.99" fill="#78b3d6" stroke="#1e1e1e" stroke-width="0.95" stroke-linejoin="round" stroke-linecap="round" />
<polygon points="57.22,74.6 57.31,77.25 46.65,81.93 46.56,79.28" fill="#d86969" stroke="#1e1e1e" stroke-width="0.95" stroke-linejoin="round" stroke-linecap="round" />
<polygon points="57.31,77.25 57.31,97.04 46.65,101.72 46.65,81.93" fill="#4f7969" stroke="#1e1e1e" stroke-width="0.95" stroke-linejoin="round" stroke-linecap="round" />
<polygon points="57.31,97.04 57.22,99.69 46.56,104.37 46.65,101.72" fill="#fccbcb" stroke="#1e1e1e" stroke-width="0.95" stroke-linejoin="round" stroke-linecap="round" />
<polygon points="57.22,99.69 56.97,101.98 46.31,106.66 46.56,104.37" fill="#78b3d6" stroke="#1e1e1e" stroke-width="0.95" stroke-linejoin="round" stroke-linecap="round" />
<polygon points="56.97,101.98 56.52,103.92 45.86,108.6 46.31,106.66" fill="#d86969" stroke="#1e1e1e" stroke-width="0.95" stroke-linejoin="round" stroke-linecap="round" />
<polygon points="56.52,103.92 55.87,105.55 45.21,110.23 45.86,108.6" fill="#4f7969" stroke="#1e1e1e" stroke-width="0.95" stroke-linejoin="round" stroke-linecap="round" />
<polygon points="55.87,105.55 55.01,106.89 44.35,111.57 45.21,110.23" fill="#fccbcb" stroke="#1e1e1e" stroke-width="0.95" stroke-linejoin="round" stroke-linecap="round" />
<polygon points="55.01,106.89 53.93,107.97 43.27,112.65 44.35,111.57" fill="#78b3d6" stroke="#1e1e1e" stroke-width="0.95" stroke-linejoin="round" stroke-linecap="round" />
<polygon points="53.93,107.97 52.61,108.81 41.95,113.49 43.27,112.65" fill="#d86969" stroke="#1e1e1e" stroke-width="0.95" stroke-linejoin="round" stroke-linecap="round" />
<polygon points="52.61,108.81 51.04,109.44 40.38,114.12 41.95,113.49" fill="#4f7969" stroke="#1e1e1e" stroke-width="0.95" stroke-linejoin="round" stroke-linecap="round" />
<polygon points="51.04,109.44 49.2,109.89 38.54,114.57 40.38,114.12" fill="#fccbcb" stroke="#1e1e1e" stroke-width="0.95" stroke-linejoin="round" stroke-linecap="round" />
<polygon points="49.2,109.89 47.1,110.17 36.44,114.85 38.54,114.57" fill="#78b3d6" stroke="#1e1e1e" stroke-width="0.95" stroke-linejoin="round" stroke-linecap="round" />
<polygon points="47.1,110.17 44.71,110.33 34.05,115.01 36.44,114.85" fill="#d86969" stroke="#1e1e1e" stroke-width="0.95" stroke-linejoin="round" stroke-linecap="round" />
<polygon points="44.71,110.33 42.02,110.37 31.36,115.05 34.05,115.01" fill="#4f7969" stroke="#1e1e1e" stroke-width="0.95" stroke-linejoin="round" stroke-linecap="round" />
    <path d="M 42.02 34.52 L 12.62 34.52 L 12.62 191.32 L 42.02 191.32 L 42.02 139.77 C 75.54 139.18 86.71 128.21 86.71 97.04 L 86.71 77.25 C 86.71 45.69 75.54 34.52 42.02 34.52 Z M 42.02 110.37 L 42.02 63.92 C 53.39 63.92 57.31 65.88 57.31 77.25 L 57.31 97.04 C 57.31 108.41 53.39 110.37 42.02 110.37 Z" fill="none" stroke="#1e1e1e" stroke-width="1.0" />
    <path d="M 31.36 39.2 L 1.96 39.2 L 1.96 196 L 31.36 196 L 31.36 144.45 C 64.88 143.86 76.05 132.89 76.05 101.72 L 76.05 81.93 C 76.05 50.37 64.88 39.2 31.36 39.2 Z M 31.36 115.05 L 31.36 68.6 C 42.73 68.6 46.65 70.56 46.65 81.93 L 46.65 101.72 C 46.65 113.09 42.73 115.05 31.36 115.05 Z" fill="#ffffff" stroke="#1e1e1e" stroke-width="1.15" />
  </g>
  </g>
</svg>