<?xml version="1.0" encoding="UTF-8"?>
<svg xmlns="http://www.w3.org/2000/svg" width="256" height="256" viewBox="0 0 256 256" fill="none">
  
  <g transform="translate(68.56 -50.3) scale(1.4)">
    <g transform="rotate(-6 42.59 128.4)">
    <path d="M 44.9 38.12 L 12.8 38.12 L 12.8 209.32 L 44.9 209.32 L 44.9 153.04 C 81.49 152.4 93.69 140.41 93.69 106.39 L 93.69 84.77 C 93.69 50.32 81.49 38.12 44.9 38.12 Z M 44.9 120.94 L 44.9 70.22 C 57.31 70.22 61.59 72.36 61.59 84.77 L 61.59 106.39 C 61.59 118.8 57.31 120.94 44.9 120.94 Z" fill="#ffffff" />
    <polygon points="44.9,38.12 12.8,38.12 2.14,42.8 34.24,42.8" fill="#78b3d6" />
<polygon points="12.8,38.12 12.8,209.32 2.14,214 2.14,42.8" fill="#d86969" />
<polygon points="12.8,209.32 44.9,209.32 34.24,214 2.14,214" fill="#4f7969" />
<polygon points="44.9,209.32 44.9,153.04 34.24,157.72 34.24,214" fill="#fccbcb" />
<polygon points="44.9,153.04 48.73,152.93 38.07,157.61 34.24,157.72" fill="#78b3d6" />
<polygon points="48.73,152.93 52.37,152.72 41.71,157.4 38.07,157.61" fill="#d86969" />
<polygon points="52.37,152.72 55.84,152.43 45.18,157.11 41.71,157.4" fill="#4f7969" />
<polygon points="55.84,152.43 59.13,152.04 48.47,156.72 45.18,157.11" fill="#fccbcb" />
<polygon points="59.13,152.04 62.24,151.55 51.58,156.23 48.47,156.72" fill="#78b3d6" />
<polygon points="62.24,151.55 65.18,150.96 54.52,155.64 51.58,156.23" fill="#d86969" />
<polygon points="65.18,150.96 67.96,150.26 57.3,154.94 54.52,155.64" fill="#4f7969" />
<polygon points="67.96,150.26 70.58,149.46 59.92,154.14 57.3,154.94" fill="#fccbcb" />
<polygon points="70.58,149.46 73.03,148.55 62.37,153.23 59.92,154.14" fill="#78b3d6" />
<polygon points="73.03,148.55 75.33,147.52 64.67,152.2 62.37,153.23" fill="#d86969" />
<polygon points="75.33,147.52 77.47,146.38 66.81,151.06 64.67,152.2" fill="#4f7969" />
<polygon points="77.47,146.38 79.47,145.12 68.81,149.8 66.81,151.06" fill="#fccbcb" />
<polygon points="79.47,145.12 81.31,143.74 70.65,148.42 68.81,149.8" fill="#78b3d6" />
<polygon points="81.31,143.74 83.02,142.23 72.36,146.91 70.65,148.42" fill="#d86969" />
<polygon points="83.02,142.23 84.58,140.6 73.92,145.28 72.36,146.91" fill="#4f7969" />
<polygon points="84.58,140.6 86.01,138.83 75.35,143.51 73.92,145.28" fill="#fccbcb" />
<polygon points="86.01,138.83 87.3,136.93 76.64,141.61 75.35,143.51" fill="#78b3d6" />
<polygon points="87.3,136.93 88.47,134.9 77.81,139.58 76.64,141.61" fill="#d86969" />
<polygon points="88.47,134.9 89.51,132.72 78.85,137.4 77.81,139.58" fill="#4f7969" />
<polygon points="89.51,132.72 90.42,130.4 79.76,135.08 78.85,137.4" fill="#fccbcb" />
<polygon points="90.42,130.4 91.21,127.94 80.55,132.62 79.76,135.08" fill="#78b3d6" />
<polygon points="91.21,127.94 91.89,125.33 81.23,130.01 80.55,132.62" fill="#d86969" />
<polygon points="91.89,125.33 92.46,122.57 81.8,127.25 81.23,130.01" fill="#4f7969" />
<polygon points="92.46,122.57 92.91,119.65 82.25,124.33 81.8,127.25" fill="#fccbcb" />
<polygon points="92.91,119.65 93.26,116.58 82.6,121.26 82.25,124.33" fill="#78b3d6" />
<polygon points="93.26,116.58 93.5,113.34 82.84,118.02 82.6,121.26" fill="#d86969" />
<polygon points="93.5,113.34 93.64,109.95 82.98,114.63 82.84,118.02" fill="#4f7969" />
<polygon points="93.64,109.95 93.69,106.39 83.03,111.07 82.98,114.63" fill="#fccbcb" />
<polygon points="93.69,106.39 93.69,84.77 83.03,89.45 83.03,111.07" fill="#78b3d6" />
<polygon points="93.69,84.77 93.64,81.17 82.98,85.85 83.03,89.45" fill="#d86969" />
<polygon points="93.64,81.17 93.5,77.73 82.84,82.41 82.98,85.85" fill="#4f7969" />
<polygon points="93.5,77.73 93.26,74.45 82.6,79.13 82.84,82.41" fill="#fccbcb" />
<polygon points="93.26,74.45 92.91,71.34 82.25,76.02 82.6,79.13" fill="#78b3d6" />
<polygon points="92.91,71.34 92.46,68.39 81.8,73.07 82.25,76.02" fill="#d86969" />
<polygon points="92.46,68.39 91.89,65.59 81.23,70.27 81.8,73.07" fill="#4f7969" />
<polygon points="91.89,65.59 91.21,62.95 80.55,67.63 81.23,70.27" fill="#fccbcb" />
<polygon points="91.21,62.95 90.42,60.46 79.76,65.14 80.55,67.63" fill="#78b3d6" />
<polygon points="90.42,60.46 89.51,58.11 78.85,62.79 79.76,65.14" fill="#d86969" />
<polygon points="89.51,58.11 88.47,55.92 77.81,60.6 78.85,62.79" fill="#4f7969" />
<polygon points="88.47,55.92 87.3,53.86 76.64,58.54 77.81,60.6" fill="#fccbcb" />
<polygon points="87.3,53.86 86.01,51.95 75.35,56.63 76.64,58.54" fill="#78b3d6" />
<polygon points="86.01,51.95 84.58,50.17 73.92,54.85 75.35,56.63" fill="#d86969" />
<polygon points="84.58,50.17 83.02,48.53 72.36,53.21 73.92,54.85" fill="#4f7969" />
<polygon points="83.02,48.53 81.31,47.01 70.65,51.69 72.36,53.21" fill="#fccbcb" />
<polygon points="81.31,47.01 79.47,45.63 68.81,50.31 70.65,51.69" fill="#78b3d6" />
<polygon points="79.47,45.63 77.47,44.38 66.81,49.06 68.81,50.31" fill="#d86969" />
<polygon points="77.47,44.38 75.33,43.25 64.67,47.93 66.81,49.06" fill="#4f7969" />
<polygon points="75.33,43.25 73.03,42.23 62.37,46.91 64.67,47.93" fill="#fccbcb" />
<polygon points="73.03,42.23 70.58,41.34 59.92,46.02 62.37,46.91" fill="#78b3d6" />
<polygon points="70.58,41.34 67.96,40.56 57.3,45.24 59.92,46.02" fill="#d86969" />
<polygon points="67.96,40.56 65.18,39.9 54.52,44.58 57.3,45.24" fill="#4f7969" />
<polygon points="65.18,39.9 62.24,39.34 51.58,44.02 54.52,44.58" fill="#fccbcb" />
<polygon points="62.24,39.34 59.13,38.9 48.47,43.58 51.58,44.02" fill="#78b3d6" />
<polygon points="59.13,38.9 55.84,38.55 45.18,43.23 48.47,43.58" fill="#d86969" />
<polygon points="55.84,38.55 52.37,38.31 41.71,42.99 45.18,43.23" fill="#4f7969" />
<polygon points="52.37,38.31 48.73,38.17 38.07,42.85 41.71,42.99" fill="#fccbcb" />
<polygon points="48.73,38.17 44.9,38.12 34.24,42.8 38.07,42.85" fill="#78b3d6" />
<polygon points="44.9,120.94 44.9,70.22 34.24,74.9 34.24,125.62" fill="#d86969" />
<polygon points="44.9,70.22 46.2,70.23 35.54,74.91 34.24,74.9" fill="#4f7969" />
<polygon points="46.2,70.23 47.44,70.26 36.78,74.94 35.54,74.91" fill="#fccbcb" />
<polygon points="47.44,70.26 48.61,70.3 37.95,74.98 36.78,74.94" fill="#78b3d6" />
<polygon points="48.61,70.3 49.73,70.37 39.07,75.05 37.95,74.98" fill="#d86969" />
<polygon points="49.73,70.37 50.79,70.47 40.13,75.15 39.07,75.05" fill="#4f7969" />
<polygon points="50.79,70.47 51.8,70.59 41.14,75.27 40.13,75.15" fill="#fccbcb" />
<polygon points="51.8,70.59 52.74,70.75 42.08,75.43 41.14,75.27" fill="#78b3d6" />
<polygon points="52.74,70.75 53.64,70.93 42.98,75.61 42.08,75.43" fill="#d86969" />
<polygon points="53.64,70.93 54.48,71.15 43.82,75.83 42.98,75.61" fill="#4f7969" />
<polygon points="54.48,71.15 55.26,71.41 44.6,76.09 43.82,75.83" fill="#fccbcb" />
<polygon points="55.26,71.41 56,71.7 45.34,76.38 44.6,76.09" fill="#78b3d6" />
<polygon points="56,71.7 56.68,72.04 46.02,76.72 45.34,76.38" fill="#d86969" />
<polygon points="56.68,72.04 57.31,72.42 46.65,77.1 46.02,76.72" fill="#4f7969" />
<polygon points="57.31,72.42 57.9,72.84 47.24,77.52 46.65,77.1" fill="#fccbcb" />
<polygon points="57.9,72.84 58.44,73.31 47.78,77.99 47.24,77.52" fill="#78b3d6" />
<polygon points="58.44,73.31 58.93,73.83 48.27,78.51 47.78,77.99" fill="#d86969" />
<polygon points="58.93,73.83 59.38,74.41 48.72,79.09 48.27,78.51" fill="#4f7969" />
<polygon points="59.38,74.41 59.78,75.03 49.12,79.71 48.72,79.09" fill="#fccbcb" />
<polygon points="59.78,75.03 60.14,75.72 49.48,80.4 49.12,79.71" fill="#78b3d6" />
<polygon points="60.14,75.72 60.45,76.46 49.79,81.14 49.48,80.4" fill="#d86969" />
<polygon points="60.45,76.46 60.73,77.26 50.07,81.94 49.79,81.14" fill="#4f7969" />
<polygon points="60.73,77.26 60.96,78.13 50.3,82.81 50.07,81.94" fill="#fccbcb" />
<polygon points="60.96,78.13 61.16,79.06 50.5,83.74 50.3,82.81" fill="#78b3d6" />
<polygon points="61.16,79.06 61.32,80.06 50.66,84.74 50.5,83.74" fill="#d86969" />
<polygon points="61.32,80.06 61.44,81.13 50.78,85.81 50.66,84.74" fill="#4f7969" />
<polygon points="61.44,81.13 61.53,82.27 50.87,86.95 50.78,85.81" fill="#fccbcb" />
<polygon points="61.53,82.27 61.58,83.48 50.92,88.16 50.87,86.95" fill="#78b3d6" />
<polygon points="61.58,83.48 61.59,84.77 50.93,89.45 50.92,88.16" fill="#d86969" />
<polygon points="61.59,84.77 61.59,106.39 50.93,111.07 50.93,89.45" fill="#4f7969" />
<polygon points="61.59,106.39 61.58,107.68 50.92,112.36 50.93,111.07" fill="#fccbcb" />
<polygon points="61.58,107.68 61.53,108.89 50.87,113.57 50.92,112.36" fill="#78b3d6" />
<polygon points="61.53,108.89 61.44,110.03 50.78,114.71 50.87,113.57" fill="#d86969" />
<polygon points="61.44,110.03 61.32,111.1 50.66,115.78 50.78,114.71" fill="#4f7969" />
<polygon points="61.32,111.1 61.16,112.1 50.5,116.78 50.66,115.78" fill="#fccbcb" />
<polygon points="61.16,112.1 60.96,113.03 50.3,117.71 50.5,116.78" fill="#78b3d6" />
<polygon points="60.96,113.03 60.73,113.9 50.07,118.58 50.3,117.71" fill="#d86969" />
<polygon points="60.73,113.9 60.45,114.7 49.79,119.38 50.07,118.58" fill="#4f7969" />
<polygon points="60.45,114.7 60.14,115.44 49.48,120.12 49.79,119.38" fill="#fccbcb" />
<polygon points="60.14,115.44 59.78,116.12 49.12,120.8 49.48,120.12" fill="#78b3d6" />
<polygon points="59.78,116.12 59.38,116.75 48.72,121.43 49.12,120.8" fill="#d86969" />
<polygon points="59.38,116.75 58.93,117.32 48.27,122 48.72,121.43" fill="#4f7969" />
<polygon points="58.93,117.32 58.44,117.85 47.78,122.53 48.27,122" fill="#fccbcb" />
<polygon points="58.44,117.85 57.9,118.32 47.24,123 47.78,122.53" fill="#78b3d6" />
<polygon points="57.9,118.32 57.31,118.74 46.65,123.42 47.24,123" fill="#d86969" />
<polygon points="57.31,118.74 56.68,119.12 46.02,123.8 46.65,123.42" fill="#4f7969" />
<polygon points="56.68,119.12 56,119.45 45.34,124.13 46.02,123.8" fill="#fccbcb" />
<polygon points="56,119.45 55.26,119.75 44.6,124.43 45.34,124.13" fill="#78b3d6" />
<polygon points="55.26,119.75 54.48,120 43.82,124.68 44.6,124.43" fill="#d86969" />
<polygon points="54.48,120 53.64,120.22 42.98,124.9 43.82,124.68" fill="#4f7969" />
<polygon points="53.64,120.22 52.74,120.41 42.08,125.09 42.98,124.9" fill="#fccbcb" />
<polygon points="52.74,120.41 51.8,120.56 41.14,125.24 42.08,125.09" fill="#78b3d6" />
<polygon points="51.8,120.56 50.79,120.69 40.13,125.37 41.14,125.24" fill="#d86969" />
<polygon points="50.79,120.69 49.73,120.78 39.07,125.46 40.13,125.37" fill="#4f7969" />
<polygon points="49.73,120.78 48.61,120.85 37.95,125.53 39.07,125.46" fill="#fccbcb" />
<polygon points="48.61,120.85 47.44,120.9 36.78,125.58 37.95,125.53" fill="#78b3d6" />
<polygon points="47.44,120.9 46.2,120.93 35.54,125.61 36.78,125.58" fill="#d86969" />
<polygon points="46.2,120.93 44.9,120.94 34.24,125.62 35.54,125.61" fill="#4f7969" />
    <polygon points="44.9,38.12 12.8,38.12 2.14,42.8 34.24,42.8" fill="none" stroke="#1e1e1e" stroke-width="1.05" stroke-linejoin="round" stroke-linecap="round" />
<polygon points="12.8,38.12 12.8,209.32 2.14,214 2.14,42.8" fill="none" stroke="#1e1e1e" stroke-width="1.05" stroke-linejoin="round" stroke-linecap="round" />
<polygon points="12.8,209.32 44.9,209.32 34.24,214 2.14,214" fill="none" stroke="#1e1e1e" stroke-width="1.05" stroke-linejoin="round" stroke-linecap="round" />
<polygon points="44.9,209.32 44.9,153.04 34.24,157.72 34.24,214" fill="none" stroke="#1e1e1e" stroke-width="1.05" stroke-linejoin="round" stroke-linecap="round" />
<polygon points="44.9,153.04 48.73,152.93 38.07,157.61 34.24,157.72" fill="none" stroke="#1e1e1e" stroke-width="1.05" stroke-linejoin="round" stroke-linecap="round" />
<polygon points="48.73,152.93 52.37,152.72 41.71,157.4 38.07,157.61" fill="none" stroke="#1e1e1e" stroke-width="1.05" stroke-linejoin="round" stroke-linecap="round" />
<polygon points="52.37,152.72 55.84,152.43 45.18,157.11 41.71,157.4" fill="none" stroke="#1e1e1e" stroke-width="1.05" stroke-linejoin="round" stroke-linecap="round" />
<polygon points="55.84,152.43 59.13,152.04 48.47,156.72 45.18,157.11" fill="none" stroke="#1e1e1e" stroke-width="1.05" stroke-linejoin="round" stroke-linecap="round" />
<polygon points="59.13,152.04 62.24,151.55 51.58,156.23 48.47,156.72" fill="none" stroke="#1e1e1e" stroke-width="1.05" stroke-linejoin="round" stroke-linecap="round" />
<polygon points="62.24,151.55 65.18,150.96 54.52,155.64 51.58,156.23" fill="none" stroke="#1e1e1e" stroke-width="1.05" stroke-linejoin="round" stroke-linecap="round" />
<polygon points="65.18,150.96 67.96,150.26 57.3,154.94 54.52,155.64" fill="none" stroke="#1e1e1e" stroke-width="1.05" stroke-linejoin="round" stroke-linecap="round" />
<polygon points="67.96,150.26 70.58,149.46 59.92,154.14 57.3,154.94" fill="none" stroke="#1e1e1e" stroke-width="1.05" stroke-linejoin="round" stroke-linecap="round" />
<polygon points="70.58,149.46 73.03,148.55 62.37,153.23 59.92,154.14" fill="none" stroke="#1e1e1e" stroke-width="1.05" stroke-linejoin="round" stroke-linecap="round" />
<polygon points="73.03,148.55 75.33,147.52 64.67,152.2 62.37,153.23" fill="none" stroke="#1e1e1e" stroke-width="1.05" stroke-linejoin="round" stroke-linecap="round" />
<polygon points="75.33,147.52 77.47,146.38 66.81,151.06 64.67,152.2" fill="none" stroke="#1e1e1e" stroke-width="1.05" stroke-linejoin="round" stroke-linecap="round" />
<polygon points="77.47,146.38 79.47,145.12 68.81,149.8 66.81,151.06" fill="none" stroke="#1e1e1e" stroke-width="1.05" stroke-linejoin="round" stroke-linecap="round" />
<polygon points="79.47,145.12 81.31,143.74 70.65,148.42 68.81,149.8" fill="none" stroke="#1e1e1e" stroke-width="1.05" stroke-linejoin="round" stroke-linecap="round" />
<polygon points="81.31,143.74 83.02,142.23 72.36,146.91 70.65,148.42" fill="none" stroke="#1e1e1e" stroke-width="1.05" stroke-linejoin="round" stroke-linecap="round" />
<polygon points="83.02,142.23 84.58,140.6 73.92,145.28 72.36,146.91" fill="none" stroke="#1e1e1e" stroke-width="1.05" stroke-linejoin="round" stroke-linecap="round" />
<polygon points="84.58,140.6 86.01,138.83 75.35,143.51 73.92,145.28" fill="none" stroke="#1e1e1e" stroke-width="1.05" stroke-linejoin="round" stroke-linecap="round" />
<polygon points="86.01,138.83 87.3,136.93 76.64,141.61 75.35,143.51" fill="none" stroke="#1e1e1e" stroke-width="1.05" stroke-linejoin="round" stroke-linecap="round" />
<polygon points="87.3,136.93 88.47,134.9 77.81,139.58 76.64,141.61" fill="none" stroke="#1e1e1e" stroke-width="1.05" stroke-linejoin="round" stroke-linecap="round" />
<polygon points="88.47,134.9 89.51,132.72 78.85,137.4 77.81,139.58" fill="none" stroke="#1e1e1e" stroke-width="1.05" stroke-linejoin="round" stroke-linecap="round" />
<polygon points="89.51,132.72 90.42,130.4 79.76,135.08 78.85,137.4" fill="none" stroke="#1e1e1e" stroke-width="1.05" stroke-linejoin="round" stroke-linecap="round" />
<polygon points="90.42,130.4 91.21,127.94 80.55,132.62 79.76,135.08" fill="none" stroke="#1e1e1e" stroke-width="1.05" stroke-linejoin="round" stroke-linecap="round" />
<polygon points="91.21,127.94 91.89,125.33 81.23,130.01 80.55,132.62" fill="none" stroke="#1e1e1e" stroke-width="1.05" stroke-linejoin="round" stroke-linecap="round" />
<polygon points="91.89,125.33 92.46,122.57 81.8,127.25 81.23,130.01" fill="none" stroke="#1e1e1e" stroke-width="1.05" stroke-linejoin="round" stroke-linecap="round" />
<polygon points="92.46,122.57 92.91,119.65 82.25,124.33 81.8,127.25" fill="none" stroke="#1e1e1e" stroke-width="1.05" stroke-linejoin="round" stroke-linecap="round" />
<polygon points="92.91,119.65 93.26,116.58 82.6,121.26 82.25,124.33" fill="none" stroke="#1e1e1e" stroke-width="1.05" stroke-linejoin="round" stroke-linecap="round" />
<polygon points="93.26,116.58 93.5,113.34 82.84,118.02 82.6,121.26" fill="none" stroke="#1e1e1e" stroke-width="1.05" stroke-linejoin="round" stroke-linecap="round" />
<polygon points="93.5,113.34 93.64,109.95 82.98,114.63 82.84,118.02" fill="none" stroke="#1e1e1e" stroke-width="1.05" stroke-linejoin="round" stroke-linecap="round" />
<polygon points="93.64,109.95 93.69,106.39 83.03,111.07 82.98,114.63" fill="none" stroke="#1e1e1e" stroke-width="1.05" stroke-linejoin="round" stroke-linecap="round" />
<polygon points="93.69,106.39 93.69,84.77 83.03,89.45 83.03,111.07" fill="none" stroke="#1e1e1e" stroke-width="1.05" stroke-linejoin="round" stroke-linecap="round" />
<polygon points="93.69,84.77 93.64,81.17 82.98,85.85 83.03,89.45" fill="none" stroke="#1e1e1e" stroke-width="1.05" stroke-linejoin="round" stroke-linecap="round" />
<polygon points="93.64,81.17 93.5,77.73 82.84,82.41 82.98,85.85" fill="none" stroke="#1e1e1e" stroke-width="1.05" stroke-linejoin="round" stroke-linecap="round" />
<polygon points="93.5,77.73 93.26,74.45 82.6,79.13 82.84,82.41" fill="none" stroke="#1e1e1e" stroke-width="1.05" stroke-linejoin="round" stroke-linecap="round" />
<polygon points="93.26,74.45 92.91,71.34 82.25,76.02 82.6,79.13" fill="none" stroke="#1e1e1e" stroke-width="1.05" stroke-linejoin="round" stroke-linecap="round" />
<polygon points="92.91,71.34 92.46,68.39 81.8,73.07 82.25,76.02" fill="none" stroke="#1e1e1e" stroke-width="1.05" stroke-linejoin="round" stroke-linecap="round" />
<polygon points="92.46,68.39 91.89,65.59 81.23,70.27 81.8,73.07" fill="none" stroke="#1e1e1e" stroke-width="1.05" stroke-linejoin="round" stroke-linecap="round" />
<polygon points="91.89,65.59 91.21,62.95 80.55,67.63 81.23,70.27" fill="none" stroke="#1e1e1e" stroke-width="1.05" stroke-linejoin="round" stroke-linecap="round" />
<polygon points="91.21,62.95 90.42,60.46 79.76,65.14 80.55,67.63" fill="none" stroke="#1e1e1e" stroke-width="1.05" stroke-linejoin="round" stroke-linecap="round" />
<polygon points="90.42,60.46 89.51,58.11 78.85,62.79 79.76,65.14" fill="none" stroke="#1e1e1e" stroke-width="1.05" stroke-linejoin="round" stroke-linecap="round" />
<polygon points="89.51,58.11 88.47,55.92 77.81,60.6 78.85,62.79" fill="none" stroke="#1e1e1e" stroke-width="1.05" stroke-linejoin="round" stroke-linecap="round" />
<polygon points="88.47,55.92 87.3,53.86 76.64,58.54 77.81,60.6" fill="none" stroke="#1e1e1e" stroke-width="1.05" stroke-linejoin="round" stroke-linecap="round" />
<polygon points="87.3,53.86 86.01,51.95 75.35,56.63 76.64,58.54" fill="none" stroke="#1e1e1e" stroke-width="1.05" stroke-linejoin="round" stroke-linecap="round" />
<polygon points="86.01,51.95 84.58,50.17 73.92,54.85 75.35,56.63" fill="none" stroke="#1e1e1e" stroke-width="1.05" stroke-linejoin="round" stroke-linecap="round" />
<polygon points="84.58,50.17 83.02,48.53 72.36,53.21 73.92,54.85" fill="none" stroke="#1e1e1e" stroke-width="1.05" stroke-linejoin="round" stroke-linecap="round" />
<polygon points="83.02,48.53 81.31,47.01 70.65,51.69 72.36,53.21" fill="none" stroke="#1e1e1e" stroke-width="1.05" stroke-linejoin="round" stroke-linecap="round" />
<polygon points="81.31,47.01 79.47,45.63 68.81,50.31 70.65,51.69" fill="none" stroke="#1e1e1e" stroke-width="1.05" stroke-linejoin="round" stroke-linecap="round" />
<polygon points="79.47,45.63 77.47,44.38 66.81,49.06 68.81,50.31" fill="none" stroke="#1e1e1e" stroke-width="1.05" stroke-linejoin="round" stroke-linecap="round" />
<polygon points="77.47,44.38 75.33,43.25 64.67,47.93 66.81,49.06" fill="none" stroke="#1e1e1e" stroke-width="1.05" stroke-linejoin="round" stroke-linecap="round" />
<polygon points="75.33,43.25 73.03,42.23 62.37,46.91 64.67,47.93" fill="none" stroke="#1e1e1e" stroke-width="1.05" stroke-linejoin="round" stroke-linecap="round" />
<polygon points="73.03,42.23 70.58,41.34 59.92,46.02 62.37,46.91" fill="none" stroke="#1e1e1e" stroke-width="1.05" stroke-linejoin="round" stroke-linecap="round" />
<polygon points="70.58,41.34 67.96,40.56 57.3,45.24 59.92,46.02" fill="none" stroke="#1e1e1e" stroke-width="1.05" stroke-linejoin="round" stroke-linecap="round" />
<polygon points="67.96,40.56 65.18,39.9 54.52,44.58 57.3,45.24" fill="none" stroke="#1e1e1e" stroke-width="1.05" stroke-linejoin="round" stroke-linecap="round" />
<polygon points="65.18,39.9 62.24,39.34 51.58,44.02 54.52,44.58" fill="none" stroke="#1e1e1e" stroke-width="1.05" stroke-linejoin="round" stroke-linecap="round" />
<polygon points="62.24,39.34 59.13,38.9 48.47,43.58 51.58,44.02" fill="none" stroke="#1e1e1e" stroke-width="1.05" stroke-linejoin="round" stroke-linecap="round" />
<polygon points="59.13,38.9 55.84,38.55 45.18,43.23 48.47,43.58" fill="none" stroke="#1e1e1e" stroke-width="1.05" stroke-linejoin="round" stroke-linecap="round" />
<polygon points="55.84,38.55 52.37,38.31 41.71,42.99 45.18,43.23" fill="none" stroke="#1e1e1e" stroke-width="1.05" stroke-linejoin="round" stroke-linecap="round" />
<polygon points="52.37,38.31 48.73,38.17 38.07,42.85 41.71,42.99" fill="none" stroke="#1e1e1e" stroke-width="1.05" stroke-linejoin="round" stroke-linecap="round" />
<polygon points="48.73,38.17 44.9,38.12 34.24,42.8 38.07,42.85" fill="none" stroke="#1e1e1e" stroke-width="1.05" stroke-linejoin="round" stroke-linecap="round" />
<polygon points="44.9,120.94 44.9,70.22 34.24,74.9 34.24,125.62" fill="none" stroke="#1e1e1e" stroke-width="1.05" stroke-linejoin="round" stroke-linecap="round" />
<polygon points="44.9,70.22 46.2,70.23 35.54,74.91 34.24,74.9" fill="none" stroke="#1e1e1e" stroke-width="1.05" stroke-linejoin="round" stroke-linecap="round" />
<polygon points="46.2,70.23 47.44,70.26 36.78,74.94 35.54,74.91" fill="none" stroke="#1e1e1e" stroke-width="1.05" stroke-linejoin="round" stroke-linecap="round" />
<polygon points="47.44,70.26 48.61,70.3 37.95,74.98 36.78,74.94" fill="none" stroke="#1e1e1e" stroke-width="1.05" stroke-linejoin="round" stroke-linecap="round" />
<polygon points="48.61,70.3 49.73,70.37 39.07,75.05 37.95,74.98" fill="none" stroke="#1e1e1e" stroke-width="1.05" stroke-linejoin="round" stroke-linecap="round" />
<polygon points="49.73,70.37 50.79,70.47 40.13,75.15 39.07,75.05" fill="none" stroke="#1e1e1e" stroke-width="1.05" stroke-linejoin="round" stroke-linecap="round" />
<polygon points="50.79,70.47 51.8,70.59 41.14,75.27 40.13,75.15" fill="none" stroke="#1e1e1e" stroke-width="1.05" stroke-linejoin="round" stroke-linecap="round" />
<polygon points="51.8,70.59 52.74,70.75 42.08,75.43 41.14,75.27" fill="none" stroke="#1e1e1e" stroke-width="1.05" stroke-linejoin="round" stroke-linecap="round" />
<polygon points="52.74,70.75 53.64,70.93 42.98,75.61 42.08,75.43" fill="none" stroke="#1e1e1e" stroke-width="1.05" stroke-linejoin="round" stroke-linecap="round" />
<polygon points="53.64,70.93 54.48,71.15 43.82,75.83 42.98,75.61" fill="none" stroke="#1e1e1e" stroke-width="1.05" stroke-linejoin="round" stroke-linecap="round" />
<polygon points="54.48,71.15 55.26,71.41 44.6,76.09 43.82,75.83" fill="none" stroke="#1e1e1e" stroke-width="1.05" stroke-linejoin="round" stroke-linecap="round" />
<polygon points="55.26,71.41 56,71.7 45.34,76.38 44.6,76.09" fill="none" stroke="#1e1e1e" stroke-width="1.05" stroke-linejoin="round" stroke-linecap="round" />
<polygon points="56,71.7 56.68,72.04 46.02,76.72 45.34,76.38" fill="none" stroke="#1e1e1e" stroke-width="1.05" stroke-linejoin="round" stroke-linecap="round" />
<polygon points="56.68,72.04 57.31,72.42 46.65,77.1 46.02,76.72" fill="none" stroke="#1e1e1e" stroke-width="1.05" stroke-linejoin="round" stroke-linecap="round" />
<polygon points="57.31,72.42 57.9,72.84 47.24,77.52 46.65,77.1" fill="none" stroke="#1e1e1e" stroke-width="1.05" stroke-linejoin="round" stroke-linecap="round" />
<polygon points="57.9,72.84 58.44,73.31 47.78,77.99 47.24,77.52" fill="none" stroke="#1e1e1e" stroke-width="1.05" stroke-linejoin="round" stroke-linecap="round" />
<polygon points="58.44,73.31 58.93,73.83 48.27,78.51 47.78,77.99" fill="none" stroke="#1e1e1e" stroke-width="1.05" stroke-linejoin="round" stroke-linecap="round" />
<polygon points="58.93,73.83 59.38,74.41 48.72,79.09 48.27,78.51" fill="none" stroke="#1e1e1e" stroke-width="1.05" stroke-linejoin="round" stroke-linecap="round" />
<polygon points="59.38,74.41 59.78,75.03 49.12,79.71 48.72,79.09" fill="none" stroke="#1e1e1e" stroke-width="1.05" stroke-linejoin="round" stroke-linecap="round" />
<polygon points="59.78,75.03 60.14,75.72 49.48,80.4 49.12,79.71" fill="none" stroke="#1e1e1e" stroke-width="1.05" stroke-linejoin="round" stroke-linecap="round" />
<polygon points="60.14,75.72 60.45,76.46 49.79,81.14 49.48,80.4" fill="none" stroke="#1e1e1e" stroke-width="1.05" stroke-linejoin="round" stroke-linecap="round" />
<polygon points="60.45,76.46 60.73,77.26 50.07,81.94 49.79,81.14" fill="none" stroke="#1e1e1e" stroke-width="1.05" stroke-linejoin="round" stroke-linecap="round" />
<polygon points="60.73,77.26 60.96,78.13 50.3,82.81 50.07,81.94" fill="none" stroke="#1e1e1e" stroke-width="1.05" stroke-linejoin="round" stroke-linecap="round" />
<polygon points="60.96,78.13 61.16,79.06 50.5,83.74 50.3,82.81" fill="none" stroke="#1e1e1e" stroke-width="1.05" stroke-linejoin="round" stroke-linecap="round" />
<polygon points="61.16,79.06 61.32,80.06 50.66,84.74 50.5,83.74" fill="none" stroke="#1e1e1e" stroke-width="1.05" stroke-linejoin="round" stroke-linecap="round" />
<polygon points="61.32,80.06 61.44,81.13 50.78,85.81 50.66,84.74" fill="none" stroke="#1e1e1e" stroke-width="1.05" stroke-linejoin="round" stroke-linecap="round" />
<polygon points="61.44,81.13 61.53,82.27 50.87,86.95 50.78,85.81" fill="none" stroke="#1e1e1e" stroke-width="1.05" stroke-linejoin="round" stroke-linecap="round" />
<polygon points="61.53,82.27 61.58,83.48 50.92,88.16 50.87,86.95" fill="none" stroke="#1e1e1e" stroke-width="1.05" stroke-linejoin="round" stroke-linecap="round" />
<polygon points="61.58,83.48 61.59,84.77 50.93,89.45 50.92,88.16" fill="none" stroke="#1e1e1e" stroke-width="1.05" stroke-linejoin="round" stroke-linecap="round" />
<polygon points="61.59,84.77 61.59,106.39 50.93,111.07 50.93,89.45" fill="none" stroke="#1e1e1e" stroke-width="1.05" stroke-linejoin="round" stroke-linecap="round" />
<polygon points="61.59,106.39 61.58,107.68 50.92,112.36 50.93,111.07" fill="none" stroke="#1e1e1e" stroke-width="1.05" stroke-linejoin="round" stroke-linecap="round" />
<polygon points="61.58,107.68 61.53,108.89 50.87,113.57 50.92,112.36" fill="none" stroke="#1e1e1e" stroke-width="1.05" stroke-linejoin="round" stroke-linecap="round" />
<polygon points="61.53,108.89 61.44,110.03 50.78,114.71 50.87,113.57" fill="none" stroke="#1e1e1e" stroke-width="1.05" stroke-linejoin="round" stroke-linecap="round" />
<polygon points="61.44,110.03 61.32,111.1 50.66,115.78 50.78,114.71" fill="none" stroke="#1e1e1e" stroke-width="1.05" stroke-linejoin="round" stroke-linecap="round" />
<polygon points="61.32,111.1 61.16,112.1 50.5,116.78 50.66,115.78" fill="none" stroke="#1e1e1e" stroke-width="1.05" stroke-linejoin="round" stroke-linecap="round" />
<polygon points="61.16,112.1 60.96,113.03 50.3,117.71 50.5,116.78" fill="none" stroke="#1e1e1e" stroke-width="1.05" stroke-linejoin="round" stroke-linecap="round" />
<polygon points="60.96,113.03 60.73,113.9 50.07,118.58 50.3,117.71" fill="none" stroke="#1e1e1e" stroke-width="1.05" stroke-linejoin="round" stroke-linecap="round" />
<polygon points="60.73,113.9 60.45,114.7 49.79,119.38 50.07,118.58" fill="none" stroke="#1e1e1e" stroke-width="1.05" stroke-linejoin="round" stroke-linecap="round" />
<polygon points="60.45,114.7 60.14,115.44 49.48,120.12 49.79,119.38" fill="none" stroke="#1e1e1e" stroke-width="1.05" stroke-linejoin="round" stroke-linecap="round" />
<polygon points="60.14,115.44 59.78,116.12 49.12,120.8 49.48,120.12" fill="none" stroke="#1e1e1e" stroke-width="1.05" stroke-linejoin="round" stroke-linecap="round" />
<polygon points="59.78,116.12 59.38,116.75 48.72,121.43 49.12,120.8" fill="none" stroke="#1e1e1e" stroke-width="1.05" stroke-linejoin="round" stroke-linecap="round" />
<polygon points="59.38,116.75 58.93,117.32 48.27,122 48.72,121.43" fill="none" stroke="#1e1e1e" stroke-width="1.05" stroke-linejoin="round" stroke-linecap="round" />
<polygon points="58.93,117.32 58.44,117.85 47.78,122.53 48.27,122" fill="none" stroke="#1e1e1e" stroke-width="1.05" stroke-linejoin="round" stroke-linecap="round" />
<polygon points="58.44,117.85 57.9,118.32 47.24,123 47.78,122.53" fill="none" stroke="#1e1e1e" stroke-width="1.05" stroke-linejoin="round" stroke-linecap="round" />
<polygon points="57.9,118.32 57.31,118.74 46.65,123.42 47.24,123" fill="none" stroke="#1e1e1e" stroke-width="1.05" stroke-linejoin="round" stroke-linecap="round" />
<polygon points="57.31,118.74 56.68,119.12 46.02,123.8 46.65,123.42" fill="none" stroke="#1e1e1e" stroke-width="1.05" stroke-linejoin="round" stroke-linecap="round" />
<polygon points="56.68,119.12 56,119.45 45.34,124.13 46.02,123.8" fill="none" stroke="#1e1e1e" stroke-width="1.05" stroke-linejoin="round" stroke-linecap="round" />
<polygon points="56,119.45 55.26,119.75 44.6,124.43 45.34,124.13" fill="none" stroke="#1e1e1e" stroke-width="1.05" stroke-linejoin="round" stroke-linecap="round" />
<polygon points="55.26,119.75 54.48,120 43.82,124.68 44.6,124.43" fill="none" stroke="#1e1e1e" stroke-width="1.05" stroke-linejoin="round" stroke-linecap="round" />
<polygon points="54.48,120 53.64,120.22 42.98,124.9 43.82,124.68" fill="none" stroke="#1e1e1e" stroke-width="1.05" stroke-linejoin="round" stroke-linecap="round" />
<polygon points="53.64,120.22 52.74,120.41 42.08,125.09 42.98,124.9" fill="none" stroke="#1e1e1e" stroke-width="1.05" stroke-linejoin="round" stroke-linecap="round" />
<polygon points="52.74,120.41 51.8,120.56 41.14,125.24 42.08,125.09" fill="none" stroke="#1e1e1e" stroke-width="1.05" stroke-linejoin="round" stroke-linecap="round" />
<polygon points="51.8,120.56 50.79,120.69 40.13,125.37 41.14,125.24" fill="none" stroke="#1e1e1e" stroke-width="1.05" stroke-linejoin="round" stroke-linecap="round" />
<polygon points="50.79,120.69 49.73,120.78 39.07,125.46 40.13,125.37" fill="none" stroke="#1e1e1e" stroke-width="1.05" stroke-linejoin="round" stroke-linecap="round" />
<polygon points="49.73,120.78 48.61,120.85 37.95,125.53 39.07,125.46" fill="none" stroke="#1e1e1e" stroke-width="1.05" stroke-linejoin="round" stroke-linecap="round" />
<polygon points="48.61,120.85 47.44,120.9 36.78,125.58 37.95,125.53" fill="none" stroke="#1e1e1e" stroke-width="1.05" stroke-linejoin="round" stroke-linecap="round" />
<polygon points="47.44,120.9 46.2,120.93 35.54,125.61 36.78,125.58" fill="none" stroke="#1e1e1e" stroke-width="1.05" stroke-linejoin="round" stroke-linecap="round" />
<polygon points="46.2,120.93 44.9,120.94 34.24,125.62 35.54,125.61" fill="none" stroke="#1e1e1e" stroke-width="1.05" stroke-linejoin="round" stroke-linecap="round" />
    <path d="M 44.9 38.12 L 12.8 38.12 L 12.8 209.32 L 44.9 209.32 L 44.9 153.04 L 48.73 152.93 L 52.37 152.72 L 55.84 152.43 L 59.13 152.04 L 62.24 151.55 L 65.18 150.96 L 67.96 150.26 L 70.58 149.46 L 73.03 148.55 L 75.33 147.52 L 77.47 146.38 L 79.47 145.12 L 81.31 143.74 L 83.02 142.23 L 84.58 140.6 L 86.01 138.83 L 87.3 136.93 L 88.47 134.9 L 89.51 132.72 L 90.42 130.4 L 91.21 127.94 L 91.89 125.33 L 92.46 122.57 L 92.91 119.65 L 93.26 116.58 L 93.5 113.34 L 93.64 109.95 L 93.69 106.39 L 93.69 84.77 L 93.64 81.17 L 93.5 77.73 L 93.26 74.45 L 92.91 71.34 L 92.46 68.39 L 91.89 65.59 L 91.21 62.95 L 90.42 60.46 L 89.51 58.11 L 88.47 55.92 L 87.3 53.86 L 86.01 51.95 L 84.58 50.17 L 83.02 48.53 L 81.31 47.01 L 79.47 45.63 L 77.47 44.38 L 75.33 43.25 L 73.03 42.23 L 70.58 41.34 L 67.96 40.56 L 65.18 39.9 L 62.24 39.34 L 59.13 38.9 L 55.84 38.55 L 52.37 38.31 L 48.73 38.17 L 44.9 38.12 Z" fill="none" stroke="#1e1e1e" stroke-width="1.05" stroke-linejoin="round" />
<path d="M 44.9 120.94 L 44.9 70.22 L 46.2 70.23 L 47.44 70.26 L 48.61 70.3 L 49.73 70.37 L 50.79 70.47 L 51.8 70.59 L 52.74 70.75 L 53.64 70.93 L 54.48 71.15 L 55.26 71.41 L 56 71.7 L 56.68 72.04 L 57.31 72.42 L 57.9 72.84 L 58.44 73.31 L 58.93 73.83 L 59.38 74.41 L 59.78 75.03 L 60.14 75.72 L 60.45 76.46 L 60.73 77.26 L 60.96 78.13 L 61.16 79.06 L 61.32 80.06 L 61.44 81.13 L 61.53 82.27 L 61.58 83.48 L 61.59 84.77 L 61.59 106.39 L 61.58 107.68 L 61.53 108.89 L 61.44 110.03 L 61.32 111.1 L 61.16 112.1 L 60.96 113.03 L 60.73 113.9 L 60.45 114.7 L 60.14 115.44 L 59.78 116.12 L 59.38 116.75 L 58.93 117.32 L 58.44 117.85 L 57.9 118.32 L 57.31 118.74 L 56.68 119.12 L 56 119.45 L 55.26 119.75 L 54.48 120 L 53.64 120.22 L 52.74 120.41 L 51.8 120.56 L 50.79 120.69 L 49.73 120.78 L 48.61 120.85 L 47.44 120.9 L 46.2 120.93 L 44.9 120.94 Z" fill="none" stroke="#1e1e1e" stroke-width="1.05" stroke-linejoin="round" />
    <path d="M 34.24 42.8 L 2.14 42.8 L 2.14 214 L 34.24 214 L 34.24 157.72 C 70.83 157.08 83.03 145.09 83.03 111.07 L 83.03 89.45 C 83.03 55 70.83 42.8 34.24 42.8 Z M 34.24 125.62 L 34.24 74.9 C 46.65 74.9 50.93 77.04 50.93 89.45 L 50.93 111.07 C 50.93 123.48 46.65 125.62 34.24 125.62 Z" fill="#ffffff" stroke="#1e1e1e" stroke-width="1.15" />
  </g>
  </g>
</svg>