<?xml version="1.0" encoding="UTF-8"?>
<svg xmlns="http://www.w3.org/2000/svg" width="256" height="256" viewBox="0 0 256 256" fill="none">
  
  <g transform="translate(68.56 -50.27) scale(1.4)">
    <g transform="rotate(-6 42.59 128.4)">
    <path d="M 44.9 38.12 L 12.8 38.12 L 12.8 209.32 L 44.9 209.32 L 44.9 153.04 C 81.49 152.4 93.69 140.41 93.69 106.39 L 93.69 84.77 C 93.69 50.32 81.49 38.12 44.9 38.12 Z M 44.9 120.94 L 44.9 70.22 C 57.31 70.22 61.59 72.36 61.59 84.77 L 61.59 106.39 C 61.59 118.8 57.31 120.94 44.9 120.94 Z" fill="#ffffff" />
    <polygon points="44.9,38.12 12.8,38.12 2.14,42.8 34.24,42.8" fill="#78b3d6" />
<polygon points="12.8,38.12 12.8,209.32 2.14,214 2.14,42.8" fill="#78b3d6" />
<polygon points="12.8,209.32 44.9,209.32 34.24,214 2.14,214" fill="#78b3d6" />
<polygon points="44.9,209.32 44.9,153.04 34.24,157.72 34.24,214" fill="#78b3d6" />
<polygon points="44.9,153.04 51.48,152.78 40.82,157.46 34.24,157.72" fill="#d86969" />
<polygon points="51.48,152.78 57.5,152.24 46.84,156.92 40.82,157.46" fill="#d86969" />
<polygon points="57.5,152.24 62.99,151.41 52.33,156.09 46.84,156.92" fill="#d86969" />
<polygon points="62.99,151.41 67.96,150.26 57.3,154.94 52.33,156.09" fill="#d86969" />
<polygon points="67.96,150.26 72.43,148.79 61.77,153.47 57.3,154.94" fill="#4f7969" />
<polygon points="72.43,148.79 76.42,146.97 65.76,151.65 61.77,153.47" fill="#4f7969" />
<polygon points="76.42,146.97 79.94,144.79 69.28,149.47 65.76,151.65" fill="#4f7969" />
<polygon points="79.94,144.79 83.02,142.23 72.36,146.91 69.28,149.47" fill="#4f7969" />
<polygon points="83.02,142.23 85.67,139.28 75.01,143.96 72.36,146.91" fill="#fccbcb" />
<polygon points="85.67,139.28 87.9,135.93 77.24,140.61 75.01,143.96" fill="#fccbcb" />
<polygon points="87.9,135.93 89.75,132.15 79.09,136.83 77.24,140.61" fill="#fccbcb" />
<polygon points="89.75,132.15 91.21,127.94 80.55,132.62 79.09,136.83" fill="#fccbcb" />
<polygon points="91.21,127.94 92.33,123.27 81.67,127.95 80.55,132.62" fill="#78b3d6" />
<polygon points="92.33,123.27 93.1,118.13 82.44,122.81 81.67,127.95" fill="#78b3d6" />
<polygon points="93.1,118.13 93.55,112.51 82.89,117.19 82.44,122.81" fill="#78b3d6" />
<polygon points="93.55,112.51 93.69,106.39 83.03,111.07 82.89,117.19" fill="#78b3d6" />
<polygon points="93.69,106.39 93.69,84.77 83.03,89.45 83.03,111.07" fill="#d86969" />
<polygon points="93.69,84.77 93.55,78.57 82.89,83.25 83.03,89.45" fill="#d86969" />
<polygon points="93.55,78.57 93.1,72.88 82.44,77.56 82.89,83.25" fill="#d86969" />
<polygon points="93.1,72.88 92.33,67.67 81.67,72.35 82.44,77.56" fill="#d86969" />
<polygon points="92.33,67.67 91.21,62.95 80.55,67.63 81.67,72.35" fill="#4f7969" />
<polygon points="91.21,62.95 89.75,58.68 79.09,63.36 80.55,67.63" fill="#4f7969" />
<polygon points="89.75,58.68 87.9,54.87 77.24,59.55 79.09,63.36" fill="#4f7969" />
<polygon points="87.9,54.87 85.67,51.49 75.01,56.17 77.24,59.55" fill="#4f7969" />
<polygon points="85.67,51.49 83.02,48.53 72.36,53.21 75.01,56.17" fill="#fccbcb" />
<polygon points="83.02,48.53 79.94,45.97 69.28,50.65 72.36,53.21" fill="#fccbcb" />
<polygon points="79.94,45.97 76.42,43.8 65.76,48.48 69.28,50.65" fill="#fccbcb" />
<polygon points="76.42,43.8 72.43,42 61.77,46.68 65.76,48.48" fill="#fccbcb" />
<polygon points="72.43,42 67.96,40.56 57.3,45.24 61.77,46.68" fill="#78b3d6" />
<polygon points="67.96,40.56 62.99,39.47 52.33,44.15 57.3,45.24" fill="#78b3d6" />
<polygon points="62.99,39.47 57.5,38.71 46.84,43.39 52.33,44.15" fill="#78b3d6" />
<polygon points="57.5,38.71 51.48,38.27 40.82,42.95 46.84,43.39" fill="#78b3d6" />
<polygon points="51.48,38.27 44.9,38.12 34.24,42.8 40.82,42.95" fill="#d86969" />
<polygon points="44.9,120.94 44.9,70.22 34.24,74.9 34.24,125.62" fill="#d86969" />
<polygon points="44.9,70.22 47.13,70.25 36.47,74.93 34.24,74.9" fill="#d86969" />
<polygon points="47.13,70.25 49.18,70.34 38.52,75.02 36.47,74.93" fill="#d86969" />
<polygon points="49.18,70.34 51.05,70.5 40.39,75.18 38.52,75.02" fill="#4f7969" />
<polygon points="51.05,70.5 52.74,70.75 42.08,75.43 40.39,75.18" fill="#4f7969" />
<polygon points="52.74,70.75 54.27,71.1 43.61,75.78 42.08,75.43" fill="#4f7969" />
<polygon points="54.27,71.1 55.64,71.55 44.98,76.23 43.61,75.78" fill="#4f7969" />
<polygon points="60.22,75.9 60.73,77.26 50.07,81.94 49.56,80.58" fill="#fccbcb" />
<polygon points="60.73,77.26 61.12,78.82 50.46,83.5 50.07,81.94" fill="#fccbcb" />
<polygon points="61.12,78.82 61.38,80.58 50.72,85.26 50.46,83.5" fill="#fccbcb" />
<polygon points="61.38,80.58 61.54,82.56 50.88,87.24 50.72,85.26" fill="#fccbcb" />
<polygon points="61.54,82.56 61.59,84.77 50.93,89.45 50.88,87.24" fill="#78b3d6" />
<polygon points="61.59,84.77 61.59,106.39 50.93,111.07 50.93,89.45" fill="#78b3d6" />
<polygon points="61.59,106.39 61.54,108.59 50.88,113.27 50.93,111.07" fill="#78b3d6" />
<polygon points="61.54,108.59 61.38,110.57 50.72,115.25 50.88,113.27" fill="#78b3d6" />
<polygon points="61.38,110.57 61.12,112.34 50.46,117.02 50.72,115.25" fill="#d86969" />
<polygon points="61.12,112.34 60.73,113.9 50.07,118.58 50.46,117.02" fill="#d86969" />
<polygon points="60.73,113.9 60.22,115.26 49.56,119.94 50.07,118.58" fill="#d86969" />
<polygon points="55.64,119.61 54.27,120.06 43.61,124.74 44.98,124.29" fill="#d86969" />
<polygon points="54.27,120.06 52.74,120.41 42.08,125.09 43.61,124.74" fill="#4f7969" />
<polygon points="52.74,120.41 51.05,120.66 40.39,125.34 42.08,125.09" fill="#4f7969" />
<polygon points="51.05,120.66 49.18,120.82 38.52,125.5 40.39,125.34" fill="#4f7969" />
<polygon points="49.18,120.82 47.13,120.91 36.47,125.59 38.52,125.5" fill="#4f7969" />
<polygon points="47.13,120.91 44.9,120.94 34.24,125.62 36.47,125.59" fill="#fccbcb" />
    <polygon points="44.9,38.12 12.8,38.12 2.14,42.8 34.24,42.8" fill="none" stroke="#1e1e1e" stroke-width="1.05" stroke-linejoin="round" stroke-linecap="round" />
<polygon points="12.8,38.12 12.8,209.32 2.14,214 2.14,42.8" fill="none" stroke="#1e1e1e" stroke-width="1.05" stroke-linejoin="round" stroke-linecap="round" />
<polygon points="12.8,209.32 44.9,209.32 34.24,214 2.14,214" fill="none" stroke="#1e1e1e" stroke-width="1.05" stroke-linejoin="round" stroke-linecap="round" />
<polygon points="44.9,209.32 44.9,153.04 34.24,157.72 34.24,214" fill="none" stroke="#1e1e1e" stroke-width="1.05" stroke-linejoin="round" stroke-linecap="round" />
<polygon points="44.9,153.04 51.48,152.78 40.82,157.46 34.24,157.72" fill="none" stroke="#1e1e1e" stroke-width="1.05" stroke-linejoin="round" stroke-linecap="round" />
<polygon points="51.48,152.78 57.5,152.24 46.84,156.92 40.82,157.46" fill="none" stroke="#1e1e1e" stroke-width="1.05" stroke-linejoin="round" stroke-linecap="round" />
<polygon points="57.5,152.24 62.99,151.41 52.33,156.09 46.84,156.92" fill="none" stroke="#1e1e1e" stroke-width="1.05" stroke-linejoin="round" stroke-linecap="round" />
<polygon points="62.99,151.41 67.96,150.26 57.3,154.94 52.33,156.09" fill="none" stroke="#1e1e1e" stroke-width="1.05" stroke-linejoin="round" stroke-linecap="round" />
<polygon points="67.96,150.26 72.43,148.79 61.77,153.47 57.3,154.94" fill="none" stroke="#1e1e1e" stroke-width="1.05" stroke-linejoin="round" stroke-linecap="round" />
<polygon points="72.43,148.79 76.42,146.97 65.76,151.65 61.77,153.47" fill="none" stroke="#1e1e1e" stroke-width="1.05" stroke-linejoin="round" stroke-linecap="round" />
<polygon points="76.42,146.97 79.94,144.79 69.28,149.47 65.76,151.65" fill="none" stroke="#1e1e1e" stroke-width="1.05" stroke-linejoin="round" stroke-linecap="round" />
<polygon points="79.94,144.79 83.02,142.23 72.36,146.91 69.28,149.47" fill="none" stroke="#1e1e1e" stroke-width="1.05" stroke-linejoin="round" stroke-linecap="round" />
<polygon points="83.02,142.23 85.67,139.28 75.01,143.96 72.36,146.91" fill="none" stroke="#1e1e1e" stroke-width="1.05" stroke-linejoin="round" stroke-linecap="round" />
<polygon points="85.67,139.28 87.9,135.93 77.24,140.61 75.01,143.96" fill="none" stroke="#1e1e1e" stroke-width="1.05" stroke-linejoin="round" stroke-linecap="round" />
<polygon points="87.9,135.93 89.75,132.15 79.09,136.83 77.24,140.61" fill="none" stroke="#1e1e1e" stroke-width="1.05" stroke-linejoin="round" stroke-linecap="round" />
<polygon points="89.75,132.15 91.21,127.94 80.55,132.62 79.09,136.83" fill="none" stroke="#1e1e1e" stroke-width="1.05" stroke-linejoin="round" stroke-linecap="round" />
<polygon points="91.21,127.94 92.33,123.27 81.67,127.95 80.55,132.62" fill="none" stroke="#1e1e1e" stroke-width="1.05" stroke-linejoin="round" stroke-linecap="round" />
<polygon points="92.33,123.27 93.1,118.13 82.44,122.81 81.67,127.95" fill="none" stroke="#1e1e1e" stroke-width="1.05" stroke-linejoin="round" stroke-linecap="round" />
<polygon points="93.1,118.13 93.55,112.51 82.89,117.19 82.44,122.81" fill="none" stroke="#1e1e1e" stroke-width="1.05" stroke-linejoin="round" stroke-linecap="round" />
<polygon points="93.55,112.51 93.69,106.39 83.03,111.07 82.89,117.19" fill="none" stroke="#1e1e1e" stroke-width="1.05" stroke-linejoin="round" stroke-linecap="round" />
<polygon points="93.69,106.39 93.69,84.77 83.03,89.45 83.03,111.07" fill="none" stroke="#1e1e1e" stroke-width="1.05" stroke-linejoin="round" stroke-linecap="round" />
<polygon points="93.69,84.77 93.55,78.57 82.89,83.25 83.03,89.45" fill="none" stroke="#1e1e1e" stroke-width="1.05" stroke-linejoin="round" stroke-linecap="round" />
<polygon points="93.55,78.57 93.1,72.88 82.44,77.56 82.89,83.25" fill="none" stroke="#1e1e1e" stroke-width="1.05" stroke-linejoin="round" stroke-linecap="round" />
<polygon points="93.1,72.88 92.33,67.67 81.67,72.35 82.44,77.56" fill="none" stroke="#1e1e1e" stroke-width="1.05" stroke-linejoin="round" stroke-linecap="round" />
<polygon points="92.33,67.67 91.21,62.95 80.55,67.63 81.67,72.35" fill="none" stroke="#1e1e1e" stroke-width="1.05" stroke-linejoin="round" stroke-linecap="round" />
<polygon points="91.21,62.95 89.75,58.68 79.09,63.36 80.55,67.63" fill="none" stroke="#1e1e1e" stroke-width="1.05" stroke-linejoin="round" stroke-linecap="round" />
<polygon points="89.75,58.68 87.9,54.87 77.24,59.55 79.09,63.36" fill="none" stroke="#1e1e1e" stroke-width="1.05" stroke-linejoin="round" stroke-linecap="round" />
<polygon points="87.9,54.87 85.67,51.49 75.01,56.17 77.24,59.55" fill="none" stroke="#1e1e1e" stroke-width="1.05" stroke-linejoin="round" stroke-linecap="round" />
<polygon points="85.67,51.49 83.02,48.53 72.36,53.21 75.01,56.17" fill="none" stroke="#1e1e1e" stroke-width="1.05" stroke-linejoin="round" stroke-linecap="round" />
<polygon points="83.02,48.53 79.94,45.97 69.28,50.65 72.36,53.21" fill="none" stroke="#1e1e1e" stroke-width="1.05" stroke-linejoin="round" stroke-linecap="round" />
<polygon points="79.94,45.97 76.42,43.8 65.76,48.48 69.28,50.65" fill="none" stroke="#1e1e1e" stroke-width="1.05" stroke-linejoin="round" stroke-linecap="round" />
<polygon points="76.42,43.8 72.43,42 61.77,46.68 65.76,48.48" fill="none" stroke="#1e1e1e" stroke-width="1.05" stroke-linejoin="round" stroke-linecap="round" />
<polygon points="72.43,42 67.96,40.56 57.3,45.24 61.77,46.68" fill="none" stroke="#1e1e1e" stroke-width="1.05" stroke-linejoin="round" stroke-linecap="round" />
<polygon points="67.96,40.56 62.99,39.47 52.33,44.15 57.3,45.24" fill="none" stroke="#1e1e1e" stroke-width="1.05" stroke-linejoin="round" stroke-linecap="round" />
<polygon points="62.99,39.47 57.5,38.71 46.84,43.39 52.33,44.15" fill="none" stroke="#1e1e1e" stroke-width="1.05" stroke-linejoin="round" stroke-linecap="round" />
<polygon points="57.5,38.71 51.48,38.27 40.82,42.95 46.84,43.39" fill="none" stroke="#1e1e1e" stroke-width="1.05" stroke-linejoin="round" stroke-linecap="round" />
<polygon points="51.48,38.27 44.9,38.12 34.24,42.8 40.82,42.95" fill="none" stroke="#1e1e1e" stroke-width="1.05" stroke-linejoin="round" stroke-linecap="round" />
<polygon points="44.9,120.94 44.9,70.22 34.24,74.9 34.24,125.62" fill="none" stroke="#1e1e1e" stroke-width="1.05" stroke-linejoin="round" stroke-linecap="round" />
<polygon points="44.9,70.22 47.13,70.25 36.47,74.93 34.24,74.9" fill="none" stroke="#1e1e1e" stroke-width="1.05" stroke-linejoin="round" stroke-linecap="round" />
<polygon points="47.13,70.25 49.18,70.34 38.52,75.02 36.47,74.93" fill="none" stroke="#1e1e1e" stroke-width="1.05" stroke-linejoin="round" stroke-linecap="round" />
<polygon points="49.18,70.34 51.05,70.5 40.39,75.18 38.52,75.02" fill="none" stroke="#1e1e1e" stroke-width="1.05" stroke-linejoin="round" stroke-linecap="round" />
<polygon points="51.05,70.5 52.74,70.75 42.08,75.43 40.39,75.18" fill="none" stroke="#1e1e1e" stroke-width="1.05" stroke-linejoin="round" stroke-linecap="round" />
<polygon points="52.74,70.75 54.27,71.1 43.61,75.78 42.08,75.43" fill="none" stroke="#1e1e1e" stroke-width="1.05" stroke-linejoin="round" stroke-linecap="round" />
<polygon points="54.27,71.1 55.64,71.55 44.98,76.23 43.61,75.78" fill="none" stroke="#1e1e1e" stroke-width="1.05" stroke-linejoin="round" stroke-linecap="round" />
<polygon points="60.22,75.9 60.73,77.26 50.07,81.94 49.56,80.58" fill="none" stroke="#1e1e1e" stroke-width="1.05" stroke-linejoin="round" stroke-linecap="round" />
<polygon points="60.73,77.26 61.12,78.82 50.46,83.5 50.07,81.94" fill="none" stroke="#1e1e1e" stroke-width="1.05" stroke-linejoin="round" stroke-linecap="round" />
<polygon points="61.12,78.82 61.38,80.58 50.72,85.26 50.46,83.5" fill="none" stroke="#1e1e1e" stroke-width="1.05" stroke-linejoin="round" stroke-linecap="round" />
<polygon points="61.38,80.58 61.54,82.56 50.88,87.24 50.72,85.26" fill="none" stroke="#1e1e1e" stroke-width="1.05" stroke-linejoin="round" stroke-linecap="round" />
<polygon points="61.54,82.56 61.59,84.77 50.93,89.45 50.88,87.24" fill="none" stroke="#1e1e1e" stroke-width="1.05" stroke-linejoin="round" stroke-linecap="round" />
<polygon points="61.59,84.77 61.59,106.39 50.93,111.07 50.93,89.45" fill="none" stroke="#1e1e1e" stroke-width="1.05" stroke-linejoin="round" stroke-linecap="round" />
<polygon points="61.59,106.39 61.54,108.59 50.88,113.27 50.93,111.07" fill="none" stroke="#1e1e1e" stroke-width="1.05" stroke-linejoin="round" stroke-linecap="round" />
<polygon points="61.54,108.59 61.38,110.57 50.72,115.25 50.88,113.27" fill="none" stroke="#1e1e1e" stroke-width="1.05" stroke-linejoin="round" stroke-linecap="round" />
<polygon points="61.38,110.57 61.12,112.34 50.46,117.02 50.72,115.25" fill="none" stroke="#1e1e1e" stroke-width="1.05" stroke-linejoin="round" stroke-linecap="round" />
<polygon points="61.12,112.34 60.73,113.9 50.07,118.58 50.46,117.02" fill="none" stroke="#1e1e1e" stroke-width="1.05" stroke-linejoin="round" stroke-linecap="round" />
<polygon points="60.73,113.9 60.22,115.26 49.56,119.94 50.07,118.58" fill="none" stroke="#1e1e1e" stroke-width="1.05" stroke-linejoin="round" stroke-linecap="round" />
<polygon points="55.64,119.61 54.27,120.06 43.61,124.74 44.98,124.29" fill="none" stroke="#1e1e1e" stroke-width="1.05" stroke-linejoin="round" stroke-linecap="round" />
<polygon points="54.27,120.06 52.74,120.41 42.08,125.09 43.61,124.74" fill="none" stroke="#1e1e1e" stroke-width="1.05" stroke-linejoin="round" stroke-linecap="round" />
<polygon points="52.74,120.41 51.05,120.66 40.39,125.34 42.08,125.09" fill="none" stroke="#1e1e1e" stroke-width="1.05" stroke-linejoin="round" stroke-linecap="round" />
<polygon points="51.05,120.66 49.18,120.82 38.52,125.5 40.39,125.34" fill="none" stroke="#1e1e1e" stroke-width="1.05" stroke-linejoin="round" stroke-linecap="round" />
<polygon points="49.18,120.82 47.13,120.91 36.47,125.59 38.52,125.5" fill="none" stroke="#1e1e1e" stroke-width="1.05" stroke-linejoin="round" stroke-linecap="round" />
<polygon points="47.13,120.91 44.9,120.94 34.24,125.62 36.47,125.59" fill="none" stroke="#1e1e1e" stroke-width="1.05" stroke-linejoin="round" stroke-linecap="round" />
    <path d="M 44.9 38.12 L 12.8 38.12 L 12.8 209.32 L 44.9 209.32 L 44.9 153.04 L 51.48 152.78 L 57.5 152.24 L 62.99 151.41 L 67.96 150.26 L 72.43 148.79 L 76.42 146.97 L 79.94 144.79 L 83.02 142.23 L 85.67 139.28 L 87.9 135.93 L 89.75 132.15 L 91.21 127.94 L 92.33 123.27 L 93.1 118.13 L 93.55 112.51 L 93.69 106.39 L 93.69 84.77 L 93.55 78.57 L 93.1 72.88 L 92.33 67.67 L 91.21 62.95 L 89.75 58.68 L 87.9 54.87 L 85.67 51.49 L 83.02 48.53 L 79.94 45.97 L 76.42 43.8 L 72.43 42 L 67.96 40.56 L 62.99 39.47 L 57.5 38.71 L 51.48 38.27 L 44.9 38.12 Z" fill="none" stroke="#1e1e1e" stroke-width="1.05" stroke-linejoin="round" />
<path d="M 44.9 120.94 L 44.9 70.22 L 47.13 70.25 L 49.18 70.34 L 51.05 70.5 L 52.74 70.75 L 54.27 71.1 L 55.64 71.55 L 56.84 72.13 L 57.9 72.84 L 58.81 73.7 L 59.58 74.71 L 60.22 75.9 L 60.73 77.26 L 61.12 78.82 L 61.38 80.58 L 61.54 82.56 L 61.59 84.77 L 61.59 106.39 L 61.54 108.59 L 61.38 110.57 L 61.12 112.34 L 60.73 113.9 L 60.22 115.26 L 59.58 116.44 L 58.81 117.46 L 57.9 118.32 L 56.84 119.03 L 55.64 119.61 L 54.27 120.06 L 52.74 120.41 L 51.05 120.66 L 49.18 120.82 L 47.13 120.91 L 44.9 120.94 Z" fill="none" stroke="#1e1e1e" stroke-width="1.05" stroke-linejoin="round" />
    <path d="M 34.24 42.8 L 2.14 42.8 L 2.14 214 L 34.24 214 L 34.24 157.72 C 70.83 157.08 83.03 145.09 83.03 111.07 L 83.03 89.45 C 83.03 55 70.83 42.8 34.24 42.8 Z M 34.24 125.62 L 34.24 74.9 C 46.65 74.9 50.93 77.04 50.93 89.45 L 50.93 111.07 C 50.93 123.48 46.65 125.62 34.24 125.62 Z" fill="#ffffff" stroke="#1e1e1e" stroke-width="1.15" />
  </g>
  </g>
</svg>