<?xml version="1.0" encoding="UTF-8"?>
<svg xmlns="http://www.w3.org/2000/svg" width="94" height="168" viewBox="0 0 94 168" fill="none">
  
  <g transform="translate(7.23 -32.8)">
    <g transform="rotate(-6 39 117.6)">
    <path d="M 42.02 34.52 L 12.62 34.52 L 12.62 191.32 L 42.02 191.32 L 42.02 139.77 C 75.54 139.18 86.71 128.21 86.71 97.04 L 86.71 77.25 C 86.71 45.69 75.54 34.52 42.02 34.52 Z M 42.02 110.37 L 42.02 63.92 C 53.39 63.92 57.31 65.88 57.31 77.25 L 57.31 97.04 C 57.31 108.41 53.39 110.37 42.02 110.37 Z" fill="#ffffff" />
    <polygon points="42.02,34.52 12.62,34.52 1.96,39.2 31.36,39.2" fill="#78b3d6" />
<polygon points="12.62,34.52 12.62,191.32 1.96,196 1.96,39.2" fill="#d86969" />
<polygon points="12.62,191.32 42.02,191.32 31.36,196 1.96,196" fill="#4f7969" />
<polygon points="42.02,191.32 42.02,139.77 31.36,144.45 31.36,196" fill="#fccbcb" />
<polygon points="42.02,139.77 45.53,139.67 34.87,144.35 31.36,144.45" fill="#78b3d6" />
<polygon points="45.53,139.67 48.86,139.48 38.2,144.16 34.87,144.35" fill="#d86969" />
<polygon points="48.86,139.48 52.04,139.21 41.38,143.89 38.2,144.16" fill="#4f7969" />
<polygon points="52.04,139.21 55.05,138.86 44.39,143.54 41.38,143.89" fill="#fccbcb" />
<polygon points="55.05,138.86 57.9,138.41 47.24,143.09 44.39,143.54" fill="#78b3d6" />
<polygon points="57.9,138.41 60.6,137.87 49.94,142.55 47.24,143.09" fill="#d86969" />
<polygon points="60.6,137.87 63.14,137.23 52.48,141.91 49.94,142.55" fill="#4f7969" />
<polygon points="63.14,137.23 65.54,136.5 54.88,141.18 52.48,141.91" fill="#fccbcb" />
<polygon points="65.54,136.5 67.78,135.66 57.12,140.34 54.88,141.18" fill="#78b3d6" />
<polygon points="67.78,135.66 69.89,134.72 59.23,139.4 57.12,140.34" fill="#d86969" />
<polygon points="69.89,134.72 71.85,133.68 61.19,138.36 59.23,139.4" fill="#4f7969" />
<polygon points="71.85,133.68 73.68,132.52 63.02,137.2 61.19,138.36" fill="#fccbcb" />
<polygon points="73.68,132.52 75.37,131.25 64.71,135.93 63.02,137.2" fill="#78b3d6" />
<polygon points="75.37,131.25 76.93,129.87 66.27,134.55 64.71,135.93" fill="#d86969" />
<polygon points="76.93,129.87 78.37,128.38 67.71,133.06 66.27,134.55" fill="#4f7969" />
<polygon points="78.37,128.38 79.67,126.76 69.01,131.44 67.71,133.06" fill="#fccbcb" />
<polygon points="79.67,126.76 80.86,125.02 70.2,129.7 69.01,131.44" fill="#78b3d6" />
<polygon points="80.86,125.02 81.92,123.16 71.26,127.84 70.2,129.7" fill="#d86969" />
<polygon points="81.92,123.16 82.87,121.16 72.21,125.84 71.26,127.84" fill="#4f7969" />
<polygon points="82.87,121.16 83.71,119.04 73.05,123.72 72.21,125.84" fill="#fccbcb" />
<polygon points="83.71,119.04 84.44,116.78 73.78,121.46 73.05,123.72" fill="#78b3d6" />
<polygon points="84.44,116.78 85.06,114.39 74.4,119.07 73.78,121.46" fill="#d86969" />
<polygon points="85.06,114.39 85.58,111.86 74.92,116.54 74.4,119.07" fill="#4f7969" />
<polygon points="85.58,111.86 85.99,109.19 75.33,113.87 74.92,116.54" fill="#fccbcb" />
<polygon points="85.99,109.19 86.31,106.38 75.65,111.06 75.33,113.87" fill="#78b3d6" />
<polygon points="86.31,106.38 86.53,103.42 75.87,108.1 75.65,111.06" fill="#d86969" />
<polygon points="86.53,103.42 86.66,100.31 76,104.99 75.87,108.1" fill="#4f7969" />
<polygon points="86.66,100.31 86.71,97.04 76.05,101.72 76,104.99" fill="#fccbcb" />
<polygon points="86.71,97.04 86.71,77.25 76.05,81.93 76.05,101.72" fill="#78b3d6" />
<polygon points="86.71,77.25 86.66,73.94 76,78.62 76.05,81.93" fill="#d86969" />
<polygon points="86.66,73.94 86.53,70.79 75.87,75.47 76,78.62" fill="#4f7969" />
<polygon points="86.53,70.79 86.31,67.8 75.65,72.48 75.87,75.47" fill="#fccbcb" />
<polygon points="86.31,67.8 85.99,64.95 75.33,69.63 75.65,72.48" fill="#78b3d6" />
<polygon points="85.99,64.95 85.58,62.24 74.92,66.92 75.33,69.63" fill="#d86969" />
<polygon points="85.58,62.24 85.06,59.68 74.4,64.36 74.92,66.92" fill="#4f7969" />
<polygon points="85.06,59.68 84.44,57.26 73.78,61.94 74.4,64.36" fill="#fccbcb" />
<polygon points="84.44,57.26 83.71,54.98 73.05,59.66 73.78,61.94" fill="#78b3d6" />
<polygon points="83.71,54.98 82.87,52.83 72.21,57.51 73.05,59.66" fill="#d86969" />
<polygon points="82.87,52.83 81.92,50.82 71.26,55.5 72.21,57.51" fill="#4f7969" />
<polygon points="81.92,50.82 80.86,48.94 70.2,53.62 71.26,55.5" fill="#fccbcb" />
<polygon points="80.86,48.94 79.67,47.18 69.01,51.86 70.2,53.62" fill="#78b3d6" />
<polygon points="79.67,47.18 78.37,45.56 67.71,50.24 69.01,51.86" fill="#d86969" />
<polygon points="78.37,45.56 76.93,44.05 66.27,48.73 67.71,50.24" fill="#4f7969" />
<polygon points="76.93,44.05 75.37,42.67 64.71,47.35 66.27,48.73" fill="#fccbcb" />
<polygon points="75.37,42.67 73.68,41.4 63.02,46.08 64.71,47.35" fill="#78b3d6" />
<polygon points="73.68,41.4 71.85,40.25 61.19,44.93 63.02,46.08" fill="#d86969" />
<polygon points="71.85,40.25 69.89,39.21 59.23,43.89 61.19,44.93" fill="#4f7969" />
<polygon points="69.89,39.21 67.78,38.29 57.12,42.97 59.23,43.89" fill="#fccbcb" />
<polygon points="67.78,38.29 65.54,37.47 54.88,42.15 57.12,42.97" fill="#78b3d6" />
<polygon points="65.54,37.47 63.14,36.76 52.48,41.44 54.88,42.15" fill="#d86969" />
<polygon points="63.14,36.76 60.6,36.15 49.94,40.83 52.48,41.44" fill="#4f7969" />
<polygon points="60.6,36.15 57.9,35.64 47.24,40.32 49.94,40.83" fill="#fccbcb" />
<polygon points="57.9,35.64 55.05,35.23 44.39,39.91 47.24,40.32" fill="#78b3d6" />
<polygon points="55.05,35.23 52.04,34.92 41.38,39.6 44.39,39.91" fill="#d86969" />
<polygon points="52.04,34.92 48.86,34.69 38.2,39.37 41.38,39.6" fill="#4f7969" />
<polygon points="48.86,34.69 45.53,34.56 34.87,39.24 38.2,39.37" fill="#fccbcb" />
<polygon points="45.53,34.56 42.02,34.52 31.36,39.2 34.87,39.24" fill="#78b3d6" />
<polygon points="42.02,110.37 42.02,63.92 31.36,68.6 31.36,115.05" fill="#d86969" />
<polygon points="42.02,63.92 43.21,63.93 32.55,68.61 31.36,68.6" fill="#4f7969" />
<polygon points="43.21,63.93 44.34,63.95 33.68,68.63 32.55,68.61" fill="#fccbcb" />
<polygon points="44.34,63.95 45.42,64 34.76,68.68 33.68,68.63" fill="#78b3d6" />
<polygon points="45.42,64 46.45,64.06 35.79,68.74 34.76,68.68" fill="#d86969" />
<polygon points="46.45,64.06 47.42,64.15 36.76,68.83 35.79,68.74" fill="#4f7969" />
<polygon points="47.42,64.15 48.34,64.26 37.68,68.94 36.76,68.83" fill="#fccbcb" />
<polygon points="48.34,64.26 49.2,64.4 38.54,69.08 37.68,68.94" fill="#78b3d6" />
<polygon points="49.2,64.4 50.02,64.57 39.36,69.25 38.54,69.08" fill="#d86969" />
<polygon points="50.02,64.57 50.79,64.77 40.13,69.45 39.36,69.25" fill="#4f7969" />
<polygon points="50.79,64.77 51.51,65.01 40.85,69.69 40.13,69.45" fill="#fccbcb" />
<polygon points="51.51,65.01 52.18,65.28 41.52,69.96 40.85,69.69" fill="#78b3d6" />
<polygon points="52.18,65.28 52.81,65.59 42.15,70.27 41.52,69.96" fill="#d86969" />
<polygon points="52.81,65.59 53.39,65.93 42.73,70.61 42.15,70.27" fill="#4f7969" />
<polygon points="53.39,65.93 53.93,66.32 43.27,71 42.73,70.61" fill="#fccbcb" />
<polygon points="53.93,66.32 54.42,66.75 43.76,71.43 43.27,71" fill="#78b3d6" />
<polygon points="54.42,66.75 54.87,67.23 44.21,71.91 43.76,71.43" fill="#d86969" />
<polygon points="54.87,67.23 55.28,67.75 44.62,72.43 44.21,71.91" fill="#4f7969" />
<polygon points="55.28,67.75 55.65,68.33 44.99,73.01 44.62,72.43" fill="#fccbcb" />
<polygon points="55.65,68.33 55.98,68.95 45.32,73.63 44.99,73.01" fill="#78b3d6" />
<polygon points="55.98,68.95 56.27,69.63 45.61,74.31 45.32,73.63" fill="#d86969" />
<polygon points="56.27,69.63 56.52,70.37 45.86,75.05 45.61,74.31" fill="#4f7969" />
<polygon points="56.52,70.37 56.73,71.16 46.07,75.84 45.86,75.05" fill="#fccbcb" />
<polygon points="56.73,71.16 56.91,72.02 46.25,76.7 46.07,75.84" fill="#78b3d6" />
<polygon points="56.91,72.02 57.06,72.93 46.4,77.61 46.25,76.7" fill="#d86969" />
<polygon points="57.06,72.93 57.17,73.91 46.51,78.59 46.4,77.61" fill="#4f7969" />
<polygon points="57.17,73.91 57.25,74.95 46.59,79.63 46.51,78.59" fill="#fccbcb" />
<polygon points="57.25,74.95 57.29,76.07 46.63,80.75 46.59,79.63" fill="#78b3d6" />
<polygon points="57.29,76.07 57.31,77.25 46.65,81.93 46.63,80.75" fill="#d86969" />
<polygon points="57.31,77.25 57.31,97.04 46.65,101.72 46.65,81.93" fill="#4f7969" />
<polygon points="57.31,97.04 57.29,98.23 46.63,102.91 46.65,101.72" fill="#fccbcb" />
<polygon points="57.29,98.23 57.25,99.34 46.59,104.02 46.63,102.91" fill="#78b3d6" />
<polygon points="57.25,99.34 57.17,100.38 46.51,105.06 46.59,104.02" fill="#d86969" />
<polygon points="57.17,100.38 57.06,101.36 46.4,106.04 46.51,105.06" fill="#4f7969" />
<polygon points="57.06,101.36 56.91,102.28 46.25,106.96 46.4,106.04" fill="#fccbcb" />
<polygon points="56.91,102.28 56.73,103.13 46.07,107.81 46.25,106.96" fill="#78b3d6" />
<polygon points="56.73,103.13 56.52,103.92 45.86,108.6 46.07,107.81" fill="#d86969" />
<polygon points="56.52,103.92 56.27,104.66 45.61,109.34 45.86,108.6" fill="#4f7969" />
<polygon points="56.27,104.66 55.98,105.34 45.32,110.02 45.61,109.34" fill="#fccbcb" />
<polygon points="55.98,105.34 55.65,105.96 44.99,110.64 45.32,110.02" fill="#78b3d6" />
<polygon points="55.65,105.96 55.28,106.54 44.62,111.22 44.99,110.64" fill="#d86969" />
<polygon points="55.28,106.54 54.87,107.06 44.21,111.74 44.62,111.22" fill="#4f7969" />
<polygon points="54.87,107.06 54.42,107.54 43.76,112.22 44.21,111.74" fill="#fccbcb" />
<polygon points="54.42,107.54 53.93,107.97 43.27,112.65 43.76,112.22" fill="#78b3d6" />
<polygon points="53.93,107.97 53.39,108.36 42.73,113.04 43.27,112.65" fill="#d86969" />
<polygon points="53.39,108.36 52.81,108.71 42.15,113.39 42.73,113.04" fill="#4f7969" />
<polygon points="52.81,108.71 52.18,109.01 41.52,113.69 42.15,113.39" fill="#fccbcb" />
<polygon points="52.18,109.01 51.51,109.28 40.85,113.96 41.52,113.69" fill="#78b3d6" />
<polygon points="51.51,109.28 50.79,109.52 40.13,114.2 40.85,113.96" fill="#d86969" />
<polygon points="50.79,109.52 50.02,109.72 39.36,114.4 40.13,114.2" fill="#4f7969" />
<polygon points="50.02,109.72 49.2,109.89 38.54,114.57 39.36,114.4" fill="#fccbcb" />
<polygon points="49.2,109.89 48.34,110.03 37.68,114.71 38.54,114.57" fill="#78b3d6" />
<polygon points="48.34,110.03 47.42,110.14 36.76,114.82 37.68,114.71" fill="#d86969" />
<polygon points="47.42,110.14 46.45,110.23 35.79,114.91 36.76,114.82" fill="#4f7969" />
<polygon points="46.45,110.23 45.42,110.3 34.76,114.98 35.79,114.91" fill="#fccbcb" />
<polygon points="45.42,110.3 44.34,110.34 33.68,115.02 34.76,114.98" fill="#78b3d6" />
<polygon points="44.34,110.34 43.21,110.36 32.55,115.04 33.68,115.02" fill="#d86969" />
<polygon points="43.21,110.36 42.02,110.37 31.36,115.05 32.55,115.04" fill="#4f7969" />
    <polygon points="42.02,34.52 12.62,34.52 1.96,39.2 31.36,39.2" fill="none" stroke="#1e1e1e" stroke-width="1.05" stroke-linejoin="round" stroke-linecap="round" />
<polygon points="12.62,34.52 12.62,191.32 1.96,196 1.96,39.2" fill="none" stroke="#1e1e1e" stroke-width="1.05" stroke-linejoin="round" stroke-linecap="round" />
<polygon points="12.62,191.32 42.02,191.32 31.36,196 1.96,196" fill="none" stroke="#1e1e1e" stroke-width="1.05" stroke-linejoin="round" stroke-linecap="round" />
<polygon points="42.02,191.32 42.02,139.77 31.36,144.45 31.36,196" fill="none" stroke="#1e1e1e" stroke-width="1.05" stroke-linejoin="round" stroke-linecap="round" />
<polygon points="42.02,139.77 45.53,139.67 34.87,144.35 31.36,144.45" fill="none" stroke="#1e1e1e" stroke-width="1.05" stroke-linejoin="round" stroke-linecap="round" />
<polygon points="45.53,139.67 48.86,139.48 38.2,144.16 34.87,144.35" fill="none" stroke="#1e1e1e" stroke-width="1.05" stroke-linejoin="round" stroke-linecap="round" />
<polygon points="48.86,139.48 52.04,139.21 41.38,143.89 38.2,144.16" fill="none" stroke="#1e1e1e" stroke-width="1.05" stroke-linejoin="round" stroke-linecap="round" />
<polygon points="52.04,139.21 55.05,138.86 44.39,143.54 41.38,143.89" fill="none" stroke="#1e1e1e" stroke-width="1.05" stroke-linejoin="round" stroke-linecap="round" />
<polygon points="55.05,138.86 57.9,138.41 47.24,143.09 44.39,143.54" fill="none" stroke="#1e1e1e" stroke-width="1.05" stroke-linejoin="round" stroke-linecap="round" />
<polygon points="57.9,138.41 60.6,137.87 49.94,142.55 47.24,143.09" fill="none" stroke="#1e1e1e" stroke-width="1.05" stroke-linejoin="round" stroke-linecap="round" />
<polygon points="60.6,137.87 63.14,137.23 52.48,141.91 49.94,142.55" fill="none" stroke="#1e1e1e" stroke-width="1.05" stroke-linejoin="round" stroke-linecap="round" />
<polygon points="63.14,137.23 65.54,136.5 54.88,141.18 52.48,141.91" fill="none" stroke="#1e1e1e" stroke-width="1.05" stroke-linejoin="round" stroke-linecap="round" />
<polygon points="65.54,136.5 67.78,135.66 57.12,140.34 54.88,141.18" fill="none" stroke="#1e1e1e" stroke-width="1.05" stroke-linejoin="round" stroke-linecap="round" />
<polygon points="67.78,135.66 69.89,134.72 59.23,139.4 57.12,140.34" fill="none" stroke="#1e1e1e" stroke-width="1.05" stroke-linejoin="round" stroke-linecap="round" />
<polygon points="69.89,134.72 71.85,133.68 61.19,138.36 59.23,139.4" fill="none" stroke="#1e1e1e" stroke-width="1.05" stroke-linejoin="round" stroke-linecap="round" />
<polygon points="71.85,133.68 73.68,132.52 63.02,137.2 61.19,138.36" fill="none" stroke="#1e1e1e" stroke-width="1.05" stroke-linejoin="round" stroke-linecap="round" />
<polygon points="73.68,132.52 75.37,131.25 64.71,135.93 63.02,137.2" fill="none" stroke="#1e1e1e" stroke-width="1.05" stroke-linejoin="round" stroke-linecap="round" />
<polygon points="75.37,131.25 76.93,129.87 66.27,134.55 64.71,135.93" fill="none" stroke="#1e1e1e" stroke-width="1.05" stroke-linejoin="round" stroke-linecap="round" />
<polygon points="76.93,129.87 78.37,128.38 67.71,133.06 66.27,134.55" fill="none" stroke="#1e1e1e" stroke-width="1.05" stroke-linejoin="round" stroke-linecap="round" />
<polygon points="78.37,128.38 79.67,126.76 69.01,131.44 67.71,133.06" fill="none" stroke="#1e1e1e" stroke-width="1.05" stroke-linejoin="round" stroke-linecap="round" />
<polygon points="79.67,126.76 80.86,125.02 70.2,129.7 69.01,131.44" fill="none" stroke="#1e1e1e" stroke-width="1.05" stroke-linejoin="round" stroke-linecap="round" />
<polygon points="80.86,125.02 81.92,123.16 71.26,127.84 70.2,129.7" fill="none" stroke="#1e1e1e" stroke-width="1.05" stroke-linejoin="round" stroke-linecap="round" />
<polygon points="81.92,123.16 82.87,121.16 72.21,125.84 71.26,127.84" fill="none" stroke="#1e1e1e" stroke-width="1.05" stroke-linejoin="round" stroke-linecap="round" />
<polygon points="82.87,121.16 83.71,119.04 73.05,123.72 72.21,125.84" fill="none" stroke="#1e1e1e" stroke-width="1.05" stroke-linejoin="round" stroke-linecap="round" />
<polygon points="83.71,119.04 84.44,116.78 73.78,121.46 73.05,123.72" fill="none" stroke="#1e1e1e" stroke-width="1.05" stroke-linejoin="round" stroke-linecap="round" />
<polygon points="84.44,116.78 85.06,114.39 74.4,119.07 73.78,121.46" fill="none" stroke="#1e1e1e" stroke-width="1.05" stroke-linejoin="round" stroke-linecap="round" />
<polygon points="85.06,114.39 85.58,111.86 74.92,116.54 74.4,119.07" fill="none" stroke="#1e1e1e" stroke-width="1.05" stroke-linejoin="round" stroke-linecap="round" />
<polygon points="85.58,111.86 85.99,109.19 75.33,113.87 74.92,116.54" fill="none" stroke="#1e1e1e" stroke-width="1.05" stroke-linejoin="round" stroke-linecap="round" />
<polygon points="85.99,109.19 86.31,106.38 75.65,111.06 75.33,113.87" fill="none" stroke="#1e1e1e" stroke-width="1.05" stroke-linejoin="round" stroke-linecap="round" />
<polygon points="86.31,106.38 86.53,103.42 75.87,108.1 75.65,111.06" fill="none" stroke="#1e1e1e" stroke-width="1.05" stroke-linejoin="round" stroke-linecap="round" />
<polygon points="86.53,103.42 86.66,100.31 76,104.99 75.87,108.1" fill="none" stroke="#1e1e1e" stroke-width="1.05" stroke-linejoin="round" stroke-linecap="round" />
<polygon points="86.66,100.31 86.71,97.04 76.05,101.72 76,104.99" fill="none" stroke="#1e1e1e" stroke-width="1.05" stroke-linejoin="round" stroke-linecap="round" />
<polygon points="86.71,97.04 86.71,77.25 76.05,81.93 76.05,101.72" fill="none" stroke="#1e1e1e" stroke-width="1.05" stroke-linejoin="round" stroke-linecap="round" />
<polygon points="86.71,77.25 86.66,73.94 76,78.62 76.05,81.93" fill="none" stroke="#1e1e1e" stroke-width="1.05" stroke-linejoin="round" stroke-linecap="round" />
<polygon points="86.66,73.94 86.53,70.79 75.87,75.47 76,78.62" fill="none" stroke="#1e1e1e" stroke-width="1.05" stroke-linejoin="round" stroke-linecap="round" />
<polygon points="86.53,70.79 86.31,67.8 75.65,72.48 75.87,75.47" fill="none" stroke="#1e1e1e" stroke-width="1.05" stroke-linejoin="round" stroke-linecap="round" />
<polygon points="86.31,67.8 85.99,64.95 75.33,69.63 75.65,72.48" fill="none" stroke="#1e1e1e" stroke-width="1.05" stroke-linejoin="round" stroke-linecap="round" />
<polygon points="85.99,64.95 85.58,62.24 74.92,66.92 75.33,69.63" fill="none" stroke="#1e1e1e" stroke-width="1.05" stroke-linejoin="round" stroke-linecap="round" />
<polygon points="85.58,62.24 85.06,59.68 74.4,64.36 74.92,66.92" fill="none" stroke="#1e1e1e" stroke-width="1.05" stroke-linejoin="round" stroke-linecap="round" />
<polygon points="85.06,59.68 84.44,57.26 73.78,61.94 74.4,64.36" fill="none" stroke="#1e1e1e" stroke-width="1.05" stroke-linejoin="round" stroke-linecap="round" />
<polygon points="84.44,57.26 83.71,54.98 73.05,59.66 73.78,61.94" fill="none" stroke="#1e1e1e" stroke-width="1.05" stroke-linejoin="round" stroke-linecap="round" />
<polygon points="83.71,54.98 82.87,52.83 72.21,57.51 73.05,59.66" fill="none" stroke="#1e1e1e" stroke-width="1.05" stroke-linejoin="round" stroke-linecap="round" />
<polygon points="82.87,52.83 81.92,50.82 71.26,55.5 72.21,57.51" fill="none" stroke="#1e1e1e" stroke-width="1.05" stroke-linejoin="round" stroke-linecap="round" />
<polygon points="81.92,50.82 80.86,48.94 70.2,53.62 71.26,55.5" fill="none" stroke="#1e1e1e" stroke-width="1.05" stroke-linejoin="round" stroke-linecap="round" />
<polygon points="80.86,48.94 79.67,47.18 69.01,51.86 70.2,53.62" fill="none" stroke="#1e1e1e" stroke-width="1.05" stroke-linejoin="round" stroke-linecap="round" />
<polygon points="79.67,47.18 78.37,45.56 67.71,50.24 69.01,51.86" fill="none" stroke="#1e1e1e" stroke-width="1.05" stroke-linejoin="round" stroke-linecap="round" />
<polygon points="78.37,45.56 76.93,44.05 66.27,48.73 67.71,50.24" fill="none" stroke="#1e1e1e" stroke-width="1.05" stroke-linejoin="round" stroke-linecap="round" />
<polygon points="76.93,44.05 75.37,42.67 64.71,47.35 66.27,48.73" fill="none" stroke="#1e1e1e" stroke-width="1.05" stroke-linejoin="round" stroke-linecap="round" />
<polygon points="75.37,42.67 73.68,41.4 63.02,46.08 64.71,47.35" fill="none" stroke="#1e1e1e" stroke-width="1.05" stroke-linejoin="round" stroke-linecap="round" />
<polygon points="73.68,41.4 71.85,40.25 61.19,44.93 63.02,46.08" fill="none" stroke="#1e1e1e" stroke-width="1.05" stroke-linejoin="round" stroke-linecap="round" />
<polygon points="71.85,40.25 69.89,39.21 59.23,43.89 61.19,44.93" fill="none" stroke="#1e1e1e" stroke-width="1.05" stroke-linejoin="round" stroke-linecap="round" />
<polygon points="69.89,39.21 67.78,38.29 57.12,42.97 59.23,43.89" fill="none" stroke="#1e1e1e" stroke-width="1.05" stroke-linejoin="round" stroke-linecap="round" />
<polygon points="67.78,38.29 65.54,37.47 54.88,42.15 57.12,42.97" fill="none" stroke="#1e1e1e" stroke-width="1.05" stroke-linejoin="round" stroke-linecap="round" />
<polygon points="65.54,37.47 63.14,36.76 52.48,41.44 54.88,42.15" fill="none" stroke="#1e1e1e" stroke-width="1.05" stroke-linejoin="round" stroke-linecap="round" />
<polygon points="63.14,36.76 60.6,36.15 49.94,40.83 52.48,41.44" fill="none" stroke="#1e1e1e" stroke-width="1.05" stroke-linejoin="round" stroke-linecap="round" />
<polygon points="60.6,36.15 57.9,35.64 47.24,40.32 49.94,40.83" fill="none" stroke="#1e1e1e" stroke-width="1.05" stroke-linejoin="round" stroke-linecap="round" />
<polygon points="57.9,35.64 55.05,35.23 44.39,39.91 47.24,40.32" fill="none" stroke="#1e1e1e" stroke-width="1.05" stroke-linejoin="round" stroke-linecap="round" />
<polygon points="55.05,35.23 52.04,34.92 41.38,39.6 44.39,39.91" fill="none" stroke="#1e1e1e" stroke-width="1.05" stroke-linejoin="round" stroke-linecap="round" />
<polygon points="52.04,34.92 48.86,34.69 38.2,39.37 41.38,39.6" fill="none" stroke="#1e1e1e" stroke-width="1.05" stroke-linejoin="round" stroke-linecap="round" />
<polygon points="48.86,34.69 45.53,34.56 34.87,39.24 38.2,39.37" fill="none" stroke="#1e1e1e" stroke-width="1.05" stroke-linejoin="round" stroke-linecap="round" />
<polygon points="45.53,34.56 42.02,34.52 31.36,39.2 34.87,39.24" fill="none" stroke="#1e1e1e" stroke-width="1.05" stroke-linejoin="round" stroke-linecap="round" />
<polygon points="42.02,110.37 42.02,63.92 31.36,68.6 31.36,115.05" fill="none" stroke="#1e1e1e" stroke-width="1.05" stroke-linejoin="round" stroke-linecap="round" />
<polygon points="42.02,63.92 43.21,63.93 32.55,68.61 31.36,68.6" fill="none" stroke="#1e1e1e" stroke-width="1.05" stroke-linejoin="round" stroke-linecap="round" />
<polygon points="43.21,63.93 44.34,63.95 33.68,68.63 32.55,68.61" fill="none" stroke="#1e1e1e" stroke-width="1.05" stroke-linejoin="round" stroke-linecap="round" />
<polygon points="44.34,63.95 45.42,64 34.76,68.68 33.68,68.63" fill="none" stroke="#1e1e1e" stroke-width="1.05" stroke-linejoin="round" stroke-linecap="round" />
<polygon points="45.42,64 46.45,64.06 35.79,68.74 34.76,68.68" fill="none" stroke="#1e1e1e" stroke-width="1.05" stroke-linejoin="round" stroke-linecap="round" />
<polygon points="46.45,64.06 47.42,64.15 36.76,68.83 35.79,68.74" fill="none" stroke="#1e1e1e" stroke-width="1.05" stroke-linejoin="round" stroke-linecap="round" />
<polygon points="47.42,64.15 48.34,64.26 37.68,68.94 36.76,68.83" fill="none" stroke="#1e1e1e" stroke-width="1.05" stroke-linejoin="round" stroke-linecap="round" />
<polygon points="48.34,64.26 49.2,64.4 38.54,69.08 37.68,68.94" fill="none" stroke="#1e1e1e" stroke-width="1.05" stroke-linejoin="round" stroke-linecap="round" />
<polygon points="49.2,64.4 50.02,64.57 39.36,69.25 38.54,69.08" fill="none" stroke="#1e1e1e" stroke-width="1.05" stroke-linejoin="round" stroke-linecap="round" />
<polygon points="50.02,64.57 50.79,64.77 40.13,69.45 39.36,69.25" fill="none" stroke="#1e1e1e" stroke-width="1.05" stroke-linejoin="round" stroke-linecap="round" />
<polygon points="50.79,64.77 51.51,65.01 40.85,69.69 40.13,69.45" fill="none" stroke="#1e1e1e" stroke-width="1.05" stroke-linejoin="round" stroke-linecap="round" />
<polygon points="51.51,65.01 52.18,65.28 41.52,69.96 40.85,69.69" fill="none" stroke="#1e1e1e" stroke-width="1.05" stroke-linejoin="round" stroke-linecap="round" />
<polygon points="52.18,65.28 52.81,65.59 42.15,70.27 41.52,69.96" fill="none" stroke="#1e1e1e" stroke-width="1.05" stroke-linejoin="round" stroke-linecap="round" />
<polygon points="52.81,65.59 53.39,65.93 42.73,70.61 42.15,70.27" fill="none" stroke="#1e1e1e" stroke-width="1.05" stroke-linejoin="round" stroke-linecap="round" />
<polygon points="53.39,65.93 53.93,66.32 43.27,71 42.73,70.61" fill="none" stroke="#1e1e1e" stroke-width="1.05" stroke-linejoin="round" stroke-linecap="round" />
<polygon points="53.93,66.32 54.42,66.75 43.76,71.43 43.27,71" fill="none" stroke="#1e1e1e" stroke-width="1.05" stroke-linejoin="round" stroke-linecap="round" />
<polygon points="54.42,66.75 54.87,67.23 44.21,71.91 43.76,71.43" fill="none" stroke="#1e1e1e" stroke-width="1.05" stroke-linejoin="round" stroke-linecap="round" />
<polygon points="54.87,67.23 55.28,67.75 44.62,72.43 44.21,71.91" fill="none" stroke="#1e1e1e" stroke-width="1.05" stroke-linejoin="round" stroke-linecap="round" />
<polygon points="55.28,67.75 55.65,68.33 44.99,73.01 44.62,72.43" fill="none" stroke="#1e1e1e" stroke-width="1.05" stroke-linejoin="round" stroke-linecap="round" />
<polygon points="55.65,68.33 55.98,68.95 45.32,73.63 44.99,73.01" fill="none" stroke="#1e1e1e" stroke-width="1.05" stroke-linejoin="round" stroke-linecap="round" />
<polygon points="55.98,68.95 56.27,69.63 45.61,74.31 45.32,73.63" fill="none" stroke="#1e1e1e" stroke-width="1.05" stroke-linejoin="round" stroke-linecap="round" />
<polygon points="56.27,69.63 56.52,70.37 45.86,75.05 45.61,74.31" fill="none" stroke="#1e1e1e" stroke-width="1.05" stroke-linejoin="round" stroke-linecap="round" />
<polygon points="56.52,70.37 56.73,71.16 46.07,75.84 45.86,75.05" fill="none" stroke="#1e1e1e" stroke-width="1.05" stroke-linejoin="round" stroke-linecap="round" />
<polygon points="56.73,71.16 56.91,72.02 46.25,76.7 46.07,75.84" fill="none" stroke="#1e1e1e" stroke-width="1.05" stroke-linejoin="round" stroke-linecap="round" />
<polygon points="56.91,72.02 57.06,72.93 46.4,77.61 46.25,76.7" fill="none" stroke="#1e1e1e" stroke-width="1.05" stroke-linejoin="round" stroke-linecap="round" />
<polygon points="57.06,72.93 57.17,73.91 46.51,78.59 46.4,77.61" fill="none" stroke="#1e1e1e" stroke-width="1.05" stroke-linejoin="round" stroke-linecap="round" />
<polygon points="57.17,73.91 57.25,74.95 46.59,79.63 46.51,78.59" fill="none" stroke="#1e1e1e" stroke-width="1.05" stroke-linejoin="round" stroke-linecap="round" />
<polygon points="57.25,74.95 57.29,76.07 46.63,80.75 46.59,79.63" fill="none" stroke="#1e1e1e" stroke-width="1.05" stroke-linejoin="round" stroke-linecap="round" />
<polygon points="57.29,76.07 57.31,77.25 46.65,81.93 46.63,80.75" fill="none" stroke="#1e1e1e" stroke-width="1.05" stroke-linejoin="round" stroke-linecap="round" />
<polygon points="57.31,77.25 57.31,97.04 46.65,101.72 46.65,81.93" fill="none" stroke="#1e1e1e" stroke-width="1.05" stroke-linejoin="round" stroke-linecap="round" />
<polygon points="57.31,97.04 57.29,98.23 46.63,102.91 46.65,101.72" fill="none" stroke="#1e1e1e" stroke-width="1.05" stroke-linejoin="round" stroke-linecap="round" />
<polygon points="57.29,98.23 57.25,99.34 46.59,104.02 46.63,102.91" fill="none" stroke="#1e1e1e" stroke-width="1.05" stroke-linejoin="round" stroke-linecap="round" />
<polygon points="57.25,99.34 57.17,100.38 46.51,105.06 46.59,104.02" fill="none" stroke="#1e1e1e" stroke-width="1.05" stroke-linejoin="round" stroke-linecap="round" />
<polygon points="57.17,100.38 57.06,101.36 46.4,106.04 46.51,105.06" fill="none" stroke="#1e1e1e" stroke-width="1.05" stroke-linejoin="round" stroke-linecap="round" />
<polygon points="57.06,101.36 56.91,102.28 46.25,106.96 46.4,106.04" fill="none" stroke="#1e1e1e" stroke-width="1.05" stroke-linejoin="round" stroke-linecap="round" />
<polygon points="56.91,102.28 56.73,103.13 46.07,107.81 46.25,106.96" fill="none" stroke="#1e1e1e" stroke-width="1.05" stroke-linejoin="round" stroke-linecap="round" />
<polygon points="56.73,103.13 56.52,103.92 45.86,108.6 46.07,107.81" fill="none" stroke="#1e1e1e" stroke-width="1.05" stroke-linejoin="round" stroke-linecap="round" />
<polygon points="56.52,103.92 56.27,104.66 45.61,109.34 45.86,108.6" fill="none" stroke="#1e1e1e" stroke-width="1.05" stroke-linejoin="round" stroke-linecap="round" />
<polygon points="56.27,104.66 55.98,105.34 45.32,110.02 45.61,109.34" fill="none" stroke="#1e1e1e" stroke-width="1.05" stroke-linejoin="round" stroke-linecap="round" />
<polygon points="55.98,105.34 55.65,105.96 44.99,110.64 45.32,110.02" fill="none" stroke="#1e1e1e" stroke-width="1.05" stroke-linejoin="round" stroke-linecap="round" />
<polygon points="55.65,105.96 55.28,106.54 44.62,111.22 44.99,110.64" fill="none" stroke="#1e1e1e" stroke-width="1.05" stroke-linejoin="round" stroke-linecap="round" />
<polygon points="55.28,106.54 54.87,107.06 44.21,111.74 44.62,111.22" fill="none" stroke="#1e1e1e" stroke-width="1.05" stroke-linejoin="round" stroke-linecap="round" />
<polygon points="54.87,107.06 54.42,107.54 43.76,112.22 44.21,111.74" fill="none" stroke="#1e1e1e" stroke-width="1.05" stroke-linejoin="round" stroke-linecap="round" />
<polygon points="54.42,107.54 53.93,107.97 43.27,112.65 43.76,112.22" fill="none" stroke="#1e1e1e" stroke-width="1.05" stroke-linejoin="round" stroke-linecap="round" />
<polygon points="53.93,107.97 53.39,108.36 42.73,113.04 43.27,112.65" fill="none" stroke="#1e1e1e" stroke-width="1.05" stroke-linejoin="round" stroke-linecap="round" />
<polygon points="53.39,108.36 52.81,108.71 42.15,113.39 42.73,113.04" fill="none" stroke="#1e1e1e" stroke-width="1.05" stroke-linejoin="round" stroke-linecap="round" />
<polygon points="52.81,108.71 52.18,109.01 41.52,113.69 42.15,113.39" fill="none" stroke="#1e1e1e" stroke-width="1.05" stroke-linejoin="round" stroke-linecap="round" />
<polygon points="52.18,109.01 51.51,109.28 40.85,113.96 41.52,113.69" fill="none" stroke="#1e1e1e" stroke-width="1.05" stroke-linejoin="round" stroke-linecap="round" />
<polygon points="51.51,109.28 50.79,109.52 40.13,114.2 40.85,113.96" fill="none" stroke="#1e1e1e" stroke-width="1.05" stroke-linejoin="round" stroke-linecap="round" />
<polygon points="50.79,109.52 50.02,109.72 39.36,114.4 40.13,114.2" fill="none" stroke="#1e1e1e" stroke-width="1.05" stroke-linejoin="round" stroke-linecap="round" />
<polygon points="50.02,109.72 49.2,109.89 38.54,114.57 39.36,114.4" fill="none" stroke="#1e1e1e" stroke-width="1.05" stroke-linejoin="round" stroke-linecap="round" />
<polygon points="49.2,109.89 48.34,110.03 37.68,114.71 38.54,114.57" fill="none" stroke="#1e1e1e" stroke-width="1.05" stroke-linejoin="round" stroke-linecap="round" />
<polygon points="48.34,110.03 47.42,110.14 36.76,114.82 37.68,114.71" fill="none" stroke="#1e1e1e" stroke-width="1.05" stroke-linejoin="round" stroke-linecap="round" />
<polygon points="47.42,110.14 46.45,110.23 35.79,114.91 36.76,114.82" fill="none" stroke="#1e1e1e" stroke-width="1.05" stroke-linejoin="round" stroke-linecap="round" />
<polygon points="46.45,110.23 45.42,110.3 34.76,114.98 35.79,114.91" fill="none" stroke="#1e1e1e" stroke-width="1.05" stroke-linejoin="round" stroke-linecap="round" />
<polygon points="45.42,110.3 44.34,110.34 33.68,115.02 34.76,114.98" fill="none" stroke="#1e1e1e" stroke-width="1.05" stroke-linejoin="round" stroke-linecap="round" />
<polygon points="44.34,110.34 43.21,110.36 32.55,115.04 33.68,115.02" fill="none" stroke="#1e1e1e" stroke-width="1.05" stroke-linejoin="round" stroke-linecap="round" />
<polygon points="43.21,110.36 42.02,110.37 31.36,115.05 32.55,115.04" fill="none" stroke="#1e1e1e" stroke-width="1.05" stroke-linejoin="round" stroke-linecap="round" />
    <path d="M 42.02 34.52 L 12.62 34.52 L 12.62 191.32 L 42.02 191.32 L 42.02 139.77 L 45.53 139.67 L 48.86 139.48 L 52.04 139.21 L 55.05 138.86 L 57.9 138.41 L 60.6 137.87 L 63.14 137.23 L 65.54 136.5 L 67.78 135.66 L 69.89 134.72 L 71.85 133.68 L 73.68 132.52 L 75.37 131.25 L 76.93 129.87 L 78.37 128.38 L 79.67 126.76 L 80.86 125.02 L 81.92 123.16 L 82.87 121.16 L 83.71 119.04 L 84.44 116.78 L 85.06 114.39 L 85.58 111.86 L 85.99 109.19 L 86.31 106.38 L 86.53 103.42 L 86.66 100.31 L 86.71 97.04 L 86.71 77.25 L 86.66 73.94 L 86.53 70.79 L 86.31 67.8 L 85.99 64.95 L 85.58 62.24 L 85.06 59.68 L 84.44 57.26 L 83.71 54.98 L 82.87 52.83 L 81.92 50.82 L 80.86 48.94 L 79.67 47.18 L 78.37 45.56 L 76.93 44.05 L 75.37 42.67 L 73.68 41.4 L 71.85 40.25 L 69.89 39.21 L 67.78 38.29 L 65.54 37.47 L 63.14 36.76 L 60.6 36.15 L 57.9 35.64 L 55.05 35.23 L 52.04 34.92 L 48.86 34.69 L 45.53 34.56 L 42.02 34.52 Z" fill="none" stroke="#1e1e1e" stroke-width="1.05" stroke-linejoin="round" />
<path d="M 42.02 110.37 L 42.02 63.92 L 43.21 63.93 L 44.34 63.95 L 45.42 64 L 46.45 64.06 L 47.42 64.15 L 48.34 64.26 L 49.2 64.4 L 50.02 64.57 L 50.79 64.77 L 51.51 65.01 L 52.18 65.28 L 52.81 65.59 L 53.39 65.93 L 53.93 66.32 L 54.42 66.75 L 54.87 67.23 L 55.28 67.75 L 55.65 68.33 L 55.98 68.95 L 56.27 69.63 L 56.52 70.37 L 56.73 71.16 L 56.91 72.02 L 57.06 72.93 L 57.17 73.91 L 57.25 74.95 L 57.29 76.07 L 57.31 77.25 L 57.31 97.04 L 57.29 98.23 L 57.25 99.34 L 57.17 100.38 L 57.06 101.36 L 56.91 102.28 L 56.73 103.13 L 56.52 103.92 L 56.27 104.66 L 55.98 105.34 L 55.65 105.96 L 55.28 106.54 L 54.87 107.06 L 54.42 107.54 L 53.93 107.97 L 53.39 108.36 L 52.81 108.71 L 52.18 109.01 L 51.51 109.28 L 50.79 109.52 L 50.02 109.72 L 49.2 109.89 L 48.34 110.03 L 47.42 110.14 L 46.45 110.23 L 45.42 110.3 L 44.34 110.34 L 43.21 110.36 L 42.02 110.37 Z" fill="none" stroke="#1e1e1e" stroke-width="1.05" stroke-linejoin="round" />
    <path d="M 31.36 39.2 L 1.96 39.2 L 1.96 196 L 31.36 196 L 31.36 144.45 C 64.88 143.86 76.05 132.89 76.05 101.72 L 76.05 81.93 C 76.05 50.37 64.88 39.2 31.36 39.2 Z M 31.36 115.05 L 31.36 68.6 C 42.73 68.6 46.65 70.56 46.65 81.93 L 46.65 101.72 C 46.65 113.09 42.73 115.05 31.36 115.05 Z" fill="#ffffff" stroke="#1e1e1e" stroke-width="1.15" />
  </g>
  </g>
</svg>