<?xml version="1.0" encoding="UTF-8"?>
<svg xmlns="http://www.w3.org/2000/svg" width="256" height="256" viewBox="0 0 256 256" fill="none">
  
  <g transform="rotate(-6 90.21 109.2)">
    <path d="M 93.38 27.72 L 64.58 27.72 L 64.58 181.32 L 93.38 181.32 L 93.38 130.82 C 126.21 130.25 137.16 119.5 137.16 88.97 L 137.16 69.58 C 137.16 38.66 126.21 27.72 93.38 27.72 Z M 93.38 102.02 L 93.38 56.52 C 104.52 56.52 108.36 58.44 108.36 69.58 L 108.36 88.97 C 108.36 100.1 104.52 102.02 93.38 102.02 Z" fill="#ffffff" stroke="#1e1e1e" stroke-width="1.0" />
    <polygon points="93.38,27.72 64.58,27.72 53.92,32.4 82.72,32.4" fill="#78b3d6" />
<polygon points="64.58,27.72 64.58,181.32 53.92,186 53.92,32.4" fill="#d86969" />
<polygon points="64.58,181.32 93.38,181.32 82.72,186 53.92,186" fill="#4f7969" />
<polygon points="93.38,181.32 93.38,130.82 82.72,135.5 82.72,186" fill="#fccbcb" />
<polygon points="93.38,130.82 101.14,130.46 90.48,135.14 82.72,135.5" fill="#78b3d6" />
<polygon points="101.14,130.46 108.02,129.64 97.36,134.32 90.48,135.14" fill="#d86969" />
<polygon points="108.02,129.64 114.07,128.33 103.41,133.01 97.36,134.32" fill="#4f7969" />
<polygon points="114.07,128.33 119.32,126.5 108.66,131.18 103.41,133.01" fill="#fccbcb" />
<polygon points="119.32,126.5 123.81,124.11 113.15,128.79 108.66,131.18" fill="#78b3d6" />
<polygon points="123.81,124.11 127.58,121.13 116.92,125.81 113.15,128.79" fill="#d86969" />
<polygon points="127.58,121.13 130.66,117.52 120,122.2 116.92,125.81" fill="#4f7969" />
<polygon points="130.66,117.52 133.1,113.26 122.44,117.94 120,122.2" fill="#fccbcb" />
<polygon points="133.1,113.26 134.93,108.31 124.27,112.99 122.44,117.94" fill="#78b3d6" />
<polygon points="134.93,108.31 136.19,102.63 125.53,107.31 124.27,112.99" fill="#d86969" />
<polygon points="136.19,102.63 136.92,96.19 126.26,100.87 125.53,107.31" fill="#4f7969" />
<polygon points="136.92,96.19 137.16,88.97 126.5,93.65 126.26,100.87" fill="#fccbcb" />
<polygon points="137.16,88.97 137.16,69.58 126.5,74.26 126.5,93.65" fill="#78b3d6" />
<polygon points="137.16,69.58 136.92,62.26 126.26,66.94 126.5,74.26" fill="#d86969" />
<polygon points="136.92,62.26 136.19,55.74 125.53,60.42 126.26,66.94" fill="#4f7969" />
<polygon points="136.19,55.74 134.93,49.99 124.27,54.67 125.53,60.42" fill="#fccbcb" />
<polygon points="134.93,49.99 133.1,44.99 122.44,49.67 124.27,54.67" fill="#78b3d6" />
<polygon points="133.1,44.99 130.66,40.68 120,45.36 122.44,49.67" fill="#d86969" />
<polygon points="130.66,40.68 127.58,37.06 116.92,41.74 120,45.36" fill="#4f7969" />
<polygon points="127.58,37.06 123.81,34.07 113.15,38.75 116.92,41.74" fill="#fccbcb" />
<polygon points="123.81,34.07 119.32,31.7 108.66,36.38 113.15,38.75" fill="#78b3d6" />
<polygon points="119.32,31.7 114.07,29.91 103.41,34.59 108.66,36.38" fill="#d86969" />
<polygon points="114.07,29.91 108.02,28.67 97.36,33.35 103.41,34.59" fill="#4f7969" />
<polygon points="108.02,28.67 101.14,27.95 90.48,32.63 97.36,33.35" fill="#fccbcb" />
<polygon points="101.14,27.95 93.38,27.72 82.72,32.4 90.48,32.63" fill="#78b3d6" />
<polygon points="93.38,102.02 93.38,56.52 82.72,61.2 82.72,106.7" fill="#d86969" />
<polygon points="93.38,56.52 96.01,56.56 85.35,61.24 82.72,61.2" fill="#4f7969" />
<polygon points="96.01,56.56 98.36,56.71 87.7,61.39 85.35,61.24" fill="#fccbcb" />
<polygon points="98.36,56.71 100.42,56.99 89.76,61.67 87.7,61.39" fill="#78b3d6" />
<polygon points="100.42,56.99 102.21,57.43 91.55,62.11 89.76,61.67" fill="#d86969" />
<polygon points="102.21,57.43 103.75,58.05 93.09,62.73 91.55,62.11" fill="#4f7969" />
<polygon points="103.75,58.05 105.04,58.87 94.38,63.55 93.09,62.73" fill="#fccbcb" />
<polygon points="105.04,58.87 106.11,59.93 95.45,64.61 94.38,63.55" fill="#78b3d6" />
<polygon points="106.11,59.93 106.95,61.24 96.29,65.92 95.45,64.61" fill="#d86969" />
<polygon points="106.95,61.24 107.58,62.84 96.92,67.52 96.29,65.92" fill="#4f7969" />
<polygon points="107.58,62.84 108.02,64.74 97.36,69.42 96.92,67.52" fill="#fccbcb" />
<polygon points="108.02,64.74 108.27,66.98 97.61,71.66 97.36,69.42" fill="#78b3d6" />
<polygon points="108.27,66.98 108.36,69.58 97.7,74.26 97.61,71.66" fill="#d86969" />
<polygon points="108.36,69.58 108.36,88.97 97.7,93.65 97.7,74.26" fill="#4f7969" />
<polygon points="108.36,88.97 108.27,91.56 97.61,96.24 97.7,93.65" fill="#fccbcb" />
<polygon points="108.27,91.56 108.02,93.8 97.36,98.48 97.61,96.24" fill="#78b3d6" />
<polygon points="108.02,93.8 107.58,95.71 96.92,100.39 97.36,98.48" fill="#d86969" />
<polygon points="107.58,95.71 106.95,97.3 96.29,101.98 96.92,100.39" fill="#4f7969" />
<polygon points="106.95,97.3 106.11,98.62 95.45,103.3 96.29,101.98" fill="#fccbcb" />
<polygon points="106.11,98.62 105.04,99.67 94.38,104.35 95.45,103.3" fill="#78b3d6" />
<polygon points="105.04,99.67 103.75,100.5 93.09,105.18 94.38,104.35" fill="#d86969" />
<polygon points="103.75,100.5 102.21,101.11 91.55,105.79 93.09,105.18" fill="#4f7969" />
<polygon points="102.21,101.11 100.42,101.55 89.76,106.23 91.55,105.79" fill="#fccbcb" />
<polygon points="100.42,101.55 98.36,101.83 87.7,106.51 89.76,106.23" fill="#78b3d6" />
<polygon points="98.36,101.83 96.01,101.98 85.35,106.66 87.7,106.51" fill="#d86969" />
<polygon points="96.01,101.98 93.38,102.02 82.72,106.7 85.35,106.66" fill="#4f7969" />
    <path d="M 82.72 32.4 L 53.92 32.4 L 53.92 186 L 82.72 186 L 82.72 135.5 C 115.55 134.93 126.5 124.18 126.5 93.65 L 126.5 74.26 C 126.5 43.34 115.55 32.4 82.72 32.4 Z M 82.72 106.7 L 82.72 61.2 C 93.86 61.2 97.7 63.12 97.7 74.26 L 97.7 93.65 C 97.7 104.78 93.86 106.7 82.72 106.7 Z" fill="#ffffff" stroke="#1e1e1e" stroke-width="1.15" />
  </g>
</svg>